<svg width="32" height="32" viewBox="0 0 32 32" fill="none" xmlns="http://www.w3.org/2000/svg">
<path d="M13.8871 8.54672C12.4618 8.54672 11.1218 9.10175 10.1141 10.1096C9.10625 11.1173 8.55122 12.4573 8.55122 13.8826C8.55122 15.3079 9.10625 16.6479 10.1141 17.6557C11.1219 18.6635 12.4618 19.2186 13.8871 19.2186C14.5135 19.2186 15.1271 19.1109 15.7108 18.8985C15.9767 18.8018 16.1138 18.5078 16.0171 18.242C15.9203 17.9761 15.6264 17.839 15.3605 17.9357C14.8894 18.1071 14.3937 18.194 13.8871 18.194C11.5099 18.194 9.57579 16.2599 9.57579 13.8827C9.57579 11.5054 11.5099 9.57131 13.8871 9.57131C16.2644 9.57131 18.1985 11.5054 18.1985 13.8827C18.1985 14.0848 18.1844 14.2874 18.1566 14.485C18.1172 14.7652 18.3124 15.0243 18.5926 15.0637C18.8727 15.103 19.1318 14.9078 19.1712 14.6276C19.2056 14.383 19.223 14.1323 19.223 13.8826C19.223 12.4573 18.668 11.1173 17.6602 10.1096C16.6524 9.10175 15.3124 8.54672 13.8871 8.54672Z" fill="#1A4174"/>
<path d="M13.8872 4.00058C12.5532 4.00058 11.2588 4.26195 10.0401 4.77742C8.86315 5.27519 7.80627 5.98772 6.89878 6.89518C5.9913 7.80262 5.27875 8.8595 4.78095 10.0364C4.26545 11.2552 4.00406 12.5495 4.00406 13.8835C4.00406 15.2174 4.26545 16.5118 4.78095 17.7306C5.27875 18.9075 5.9913 19.9644 6.89878 20.8719C7.80627 21.7794 8.86315 22.4919 10.0401 22.9897C11.2589 23.5052 12.5532 23.7666 13.8872 23.7666C15.7721 23.7666 17.6048 23.2341 19.1873 22.2265C19.426 22.0746 19.4963 21.7579 19.3443 21.5193C19.1924 21.2806 18.8757 21.2103 18.6371 21.3622C17.2193 22.2649 15.5768 22.742 13.8872 22.742C9.00256 22.742 5.02865 18.7681 5.02865 13.8835C5.02865 8.99896 9.00256 5.02514 13.8872 5.02514C18.7717 5.02514 22.7455 8.99896 22.7455 13.8835C22.7455 15.2983 22.4221 16.65 21.7842 17.901C21.6557 18.1531 21.7558 18.4616 22.0079 18.5901C22.2599 18.7186 22.5684 18.6185 22.697 18.3665C23.409 16.97 23.7701 15.4616 23.7701 13.8834C23.7701 12.5495 23.5088 11.2551 22.9933 10.0364C22.4955 8.85948 21.783 7.80262 20.8755 6.89516C19.9681 5.98769 18.9112 5.27517 17.7343 4.7774C16.5155 4.26195 15.2211 4.00058 13.8872 4.00058Z" fill="#1A4174"/>
<path d="M13.8877 1.52588e-05C12.0131 1.52588e-05 10.1943 0.367264 8.48188 1.09159C6.82807 1.79105 5.34293 2.79233 4.06766 4.06758C2.79239 5.34285 1.79108 6.82794 1.0916 8.48172C0.367274 10.1942 0 12.013 0 13.8875C0 15.7621 0.367274 17.5809 1.0916 19.2933C1.79111 20.9471 2.79239 22.4322 4.06766 23.7075C5.34293 24.9827 6.82807 25.984 8.48188 26.6835C10.1943 27.4078 12.0131 27.775 13.8877 27.775C15.3901 27.775 16.8681 27.5364 18.2806 27.0658C19.6466 26.6106 20.9301 25.9463 22.0955 25.0911C22.3236 24.9237 22.3728 24.6032 22.2054 24.375C22.038 24.1469 21.7174 24.0977 21.4893 24.2651C19.2735 25.891 16.6449 26.7504 13.8877 26.7504C6.79495 26.7504 1.02456 20.9801 1.02456 13.8875C1.02456 6.79487 6.79495 1.02455 13.8877 1.02455C20.9804 1.02455 26.7507 6.79484 26.7507 13.8875C26.7507 16.3444 26.0557 18.7326 24.7409 20.794C24.5888 21.0326 24.6588 21.3493 24.8973 21.5014C25.1359 21.6536 25.4526 21.5836 25.6047 21.345C27.0247 19.1187 27.7752 16.5399 27.7752 13.8875C27.7752 12.0129 27.408 10.1941 26.6837 8.4817C25.9842 6.82791 24.9829 5.34279 23.7077 4.06755C22.4324 2.7923 20.9473 1.79103 19.2935 1.09154C17.5811 0.367264 15.7623 1.52588e-05 13.8877 1.52588e-05Z" fill="#1A4174"/>
<path d="M14.1476 13.0166C14.0165 13.0166 13.8854 13.0666 13.7854 13.1666C13.5853 13.3667 13.5853 13.691 13.7854 13.8911L24.7793 24.885C24.9793 25.085 25.3037 25.085 25.5037 24.885C25.7038 24.6849 25.7038 24.3606 25.5037 24.1605L14.5099 13.1666C14.4098 13.0666 14.2787 13.0166 14.1476 13.0166Z" fill="#E9292F"/>
<path d="M25.0647 24.123C25.0499 24.123 25.035 24.1237 25.02 24.125C24.7381 24.1493 24.5294 24.3976 24.5537 24.6795L24.8486 28.0892C24.859 28.2094 24.9115 28.322 24.9967 28.4073L27.8304 31.241C27.9578 31.3684 28.1427 31.4195 28.3175 31.3756C28.4922 31.3317 28.631 31.1993 28.6831 31.0268L29.4472 28.4955C29.529 28.2246 29.3757 27.9388 29.1048 27.857C28.834 27.7752 28.5481 27.9285 28.4664 28.1994L27.9496 29.9112L25.8533 27.8149L25.5745 24.5912C25.5514 24.3244 25.3276 24.123 25.0647 24.123Z" fill="#E9292F"/>
<path d="M25.1299 23.934C24.867 23.934 24.6432 24.1353 24.6201 24.4022C24.5958 24.6841 24.8045 24.9324 25.0864 24.9567L28.4238 25.2453L30.5201 27.3417L28.8082 27.8584C28.5374 27.9402 28.3841 28.226 28.4659 28.4969C28.5476 28.7678 28.8335 28.921 29.1043 28.8393L31.6357 28.0752C31.8082 28.0231 31.9406 27.8843 31.9845 27.7096C32.0284 27.5348 31.9773 27.3499 31.8499 27.2225L29.0162 24.3888C28.9309 24.3035 28.8183 24.251 28.6981 24.2407L25.1747 23.936C25.1597 23.9347 25.1447 23.934 25.1299 23.934Z" fill="#E9292F"/>
<path d="M14.2028 12.4354C14.9168 12.4354 15.4956 13.0142 15.4956 13.7282C15.4956 14.4422 14.9168 15.0209 14.2028 15.0209C13.4888 15.0209 12.91 14.4422 12.91 13.7282C12.91 13.0142 13.4888 12.4354 14.2028 12.4354Z" fill="#E9292F"/>
</svg>
