<svg width="32" height="32" viewBox="0 0 32 32" fill="none" xmlns="http://www.w3.org/2000/svg">
<path d="M24.0332 10.1059C23.1019 8.84706 21.8875 7.82497 20.4882 7.12216C19.0889 6.41936 17.5439 6.05554 15.9781 6.0601C14.4122 6.06466 12.8694 6.43748 11.4742 7.14843C10.079 7.85938 8.87066 8.88853 7.94668 10.1527C3.11273 16.7289 8.00181 26.1463 16.2454 25.9511C24.2961 25.7505 28.7538 16.4968 24.0332 10.1059ZM23.4752 20.9364C22.6506 20.4604 21.7691 20.0907 20.8516 19.8362C21.0862 18.7383 21.2165 17.6207 21.2408 16.4982H24.94C24.8557 18.0816 24.35 19.6139 23.4752 20.9364ZM16.5 19.1897V16.4982H20.2405C20.2151 17.5376 20.0951 18.5725 19.8821 19.5901C18.7701 19.3487 17.6376 19.2146 16.5 19.1897ZM7.05998 16.4982H10.7592C10.7834 17.6206 10.9137 18.7382 11.1482 19.8361C10.2308 20.0907 9.34925 20.4603 8.52461 20.9362C7.64993 19.6137 7.14431 18.0816 7.05998 16.4982ZM8.52461 11.0601C9.34974 11.5364 10.2319 11.9062 11.1499 12.1607C11.0204 12.7494 10.9213 13.3444 10.853 13.9433C10.8388 14.0749 10.8774 14.2068 10.9603 14.3101C11.0432 14.4133 11.1637 14.4794 11.2953 14.494C11.4269 14.5085 11.5589 14.4703 11.6624 14.3876C11.7658 14.305 11.8323 14.1847 11.8471 14.0531C11.9101 13.5001 12.0011 12.9506 12.1196 12.4067C13.231 12.6478 14.363 12.7817 15.5 12.8067V15.4982H7.05998C7.1443 13.9148 7.64993 12.3827 8.52461 11.0601ZM16.5 12.8067C17.6376 12.7818 18.7701 12.6477 19.8821 12.4065C20.0952 13.424 20.2151 14.4589 20.2405 15.4982H16.5V12.8067ZM16.5 11.8068V7.10229C17.779 7.4422 18.9649 9.06824 19.6471 11.4348C18.6121 11.6577 17.5584 11.7823 16.5 11.8068ZM15.5 7.10339V11.8068C14.4417 11.7823 13.3881 11.6576 12.3533 11.4347C13.0341 9.07156 14.2183 7.44656 15.5 7.10339ZM12.1182 19.5898C11.9049 18.5723 11.7849 17.5375 11.7595 16.4982H15.5V19.1897C14.3625 19.2147 13.2301 19.3487 12.1182 19.5898ZM15.5 20.1896V24.8941C14.2211 24.5542 13.0351 22.9281 12.3532 20.5616C13.3881 20.3387 14.4417 20.2141 15.5 20.1896ZM21.2408 15.4982C21.2165 14.3758 21.0863 13.2582 20.8519 12.1602C21.7692 11.9057 22.6507 11.536 23.4752 11.06C24.35 12.3826 24.8556 13.9148 24.94 15.4982H21.2408ZM22.8758 10.255C22.1617 10.6542 21.4029 10.9676 20.6153 11.1887C20.2662 9.82555 19.6251 8.55451 18.7364 7.46354C20.3521 7.98455 21.7873 8.95237 22.8758 10.255ZM13.265 7.46298C12.3754 8.55377 11.7339 9.82504 11.3849 11.1886C10.5971 10.9676 9.83824 10.6543 9.12408 10.255C10.213 8.95192 11.6487 7.98388 13.265 7.46298ZM9.12408 21.7414C9.83826 21.3421 10.5971 21.0287 11.3849 20.8077C11.7339 22.1709 12.3749 23.4419 13.2636 24.5329C11.6479 24.0119 10.2127 23.0441 9.12408 21.7414ZM18.7481 24.5286C19.3121 23.8569 19.7669 23.1006 20.0957 22.2875C20.147 22.1653 20.1477 22.0277 20.0977 21.905C20.0476 21.7823 19.9509 21.6844 19.8288 21.6329C19.7067 21.5814 19.5691 21.5805 19.4463 21.6304C19.3235 21.6802 19.2255 21.7768 19.1738 21.8988C18.4728 23.5622 17.5153 24.6239 16.5 24.8923V20.1896C18.7189 20.1889 20.9054 20.7211 22.8758 21.7414C21.7899 23.0406 20.3591 24.0068 18.7481 24.5286Z" fill="white"/>
<path d="M16 5.54712C16.3593 5.54621 16.7099 5.43608 17.0052 5.23133C17.3005 5.02658 17.5265 4.73689 17.6533 4.40069C19.9056 4.72529 22.0152 5.69676 23.726 7.19716C25.4368 8.69757 26.6753 10.6624 27.291 12.853C27.3281 12.979 27.4133 13.0853 27.5281 13.149C27.6429 13.2127 27.7781 13.2287 27.9046 13.1936C28.0311 13.1585 28.1388 13.075 28.2043 12.9612C28.2698 12.8475 28.288 12.7125 28.2549 12.5854C27.5838 10.1975 26.231 8.05707 24.3622 6.42611C22.4934 4.79514 20.1897 3.74442 17.7329 3.40257C17.6629 3.07504 17.5015 2.77405 17.2675 2.53442C17.0335 2.2948 16.7364 2.12633 16.4106 2.04852C16.0848 1.97071 15.7437 1.98674 15.4267 2.09475C15.1096 2.20277 14.8296 2.39834 14.6191 2.65886C14.4086 2.91937 14.2762 3.23417 14.2371 3.56682C14.1981 3.89947 14.254 4.23638 14.3985 4.53856C14.543 4.84074 14.7701 5.09583 15.0535 5.27431C15.3369 5.4528 15.6651 5.54738 16 5.54712ZM16 3C16.2032 3.00302 16.397 3.08585 16.5396 3.23059C16.6822 3.37534 16.7622 3.57038 16.7622 3.77358C16.7621 3.97677 16.6822 4.17181 16.5396 4.31655C16.397 4.46129 16.2031 4.54411 16 4.54712C15.7968 4.5441 15.603 4.46127 15.4603 4.31653C15.3177 4.17178 15.2378 3.97674 15.2378 3.77354C15.2378 3.57035 15.3177 3.37531 15.4604 3.23057C15.603 3.08583 15.7968 3.00301 16 3Z" fill="white"/>
<path d="M16 26.454C15.6407 26.455 15.2901 26.5651 14.9948 26.7698C14.6995 26.9746 14.4734 27.2643 14.3465 27.6005C12.0942 27.2758 9.98459 26.3043 8.27374 24.8039C6.56289 23.3035 5.32436 21.3388 4.7085 19.1481C4.67128 19.0224 4.58613 18.9163 4.47142 18.8527C4.3567 18.7891 4.22161 18.7732 4.09524 18.8083C3.96888 18.8434 3.86136 18.9267 3.79587 19.0404C3.73038 19.154 3.71215 19.2888 3.74512 19.4157C4.41615 21.8036 5.76884 23.9441 7.6376 25.575C9.50636 27.206 11.8101 28.2567 14.2668 28.5986C14.3369 28.9261 14.4982 29.2271 14.7322 29.4667C14.9662 29.7063 15.2633 29.8748 15.5891 29.9526C15.9148 30.0304 16.256 30.0144 16.573 29.9064C16.89 29.7984 17.17 29.6029 17.3805 29.3424C17.5911 29.0819 17.7235 28.7671 17.7626 28.4345C17.8017 28.1019 17.7458 27.7649 17.6013 27.4628C17.4569 27.1606 17.2298 26.9055 16.9465 26.727C16.6631 26.5484 16.3349 26.4538 16 26.454ZM16 29.0012C15.7968 28.9982 15.6028 28.9154 15.4602 28.7707C15.3175 28.6259 15.2375 28.4308 15.2375 28.2276C15.2375 28.0243 15.3175 27.8292 15.4602 27.6845C15.6029 27.5397 15.7968 27.457 16 27.454C16.2033 27.457 16.3972 27.5398 16.5399 27.6845C16.6826 27.8293 16.7625 28.0244 16.7625 28.2276C16.7625 28.4309 16.6825 28.626 16.5398 28.7707C16.3972 28.9155 16.2032 28.9982 16 29.0012Z" fill="white"/>
<path d="M30.0001 15.9993C30.0011 15.6755 29.9135 15.3576 29.7467 15.0801C29.58 14.8026 29.3404 14.576 29.054 14.4249C28.7677 14.2738 28.4454 14.204 28.1222 14.223C27.799 14.2421 27.4871 14.3492 27.2204 14.5328C26.9538 14.7165 26.7425 14.9696 26.6094 15.2648C26.4763 15.56 26.4266 15.8859 26.4656 16.2073C26.5046 16.5288 26.6309 16.8334 26.8307 17.0882C27.0305 17.3429 27.2962 17.5382 27.599 17.6527C27.5313 18.1571 27.4284 18.6562 27.2911 19.1463C26.7454 21.088 25.7098 22.8568 24.2836 24.283C22.8575 25.7092 21.0887 26.745 19.1471 27.2908C19.0838 27.3084 19.0246 27.3382 18.9729 27.3787C18.9212 27.4191 18.878 27.4693 18.8457 27.5265C18.8134 27.5836 18.7926 27.6466 18.7846 27.7117C18.7767 27.7769 18.7816 27.843 18.7992 27.9063C18.8167 27.9695 18.8466 28.0287 18.887 28.0804C18.9275 28.1321 18.9777 28.1754 19.0349 28.2077C19.092 28.24 19.155 28.2607 19.2201 28.2687C19.2853 28.2767 19.3514 28.2717 19.4147 28.2542C21.5215 27.6621 23.4408 26.5387 24.9886 24.9916C26.5364 23.4444 27.6606 21.5255 28.2535 19.419C28.4084 18.8658 28.5234 18.3022 28.5975 17.7326C28.9941 17.6473 29.3496 17.4289 29.6047 17.1135C29.8599 16.7982 29.9995 16.405 30.0001 15.9993ZM28.2266 16.773C28.0234 16.77 27.8294 16.6872 27.6867 16.5425C27.544 16.3977 27.464 16.2026 27.464 15.9993C27.464 15.796 27.544 15.6009 27.6867 15.4561C27.8295 15.3113 28.0234 15.2285 28.2267 15.2256C28.4299 15.2285 28.6239 15.3113 28.7666 15.4561C28.9093 15.6009 28.9893 15.796 28.9893 15.9993C28.9893 16.2026 28.9093 16.3977 28.7666 16.5425C28.6239 16.6873 28.4299 16.7701 28.2266 16.773Z" fill="white"/>
<path d="M5.54712 16.0009C5.54621 15.6416 5.43607 15.291 5.23133 14.9957C5.02658 14.7003 4.7369 14.4742 4.40069 14.3474C4.72538 12.0951 5.69688 9.98549 7.19726 8.27464C8.69765 6.5638 10.6624 5.32528 12.853 4.70942C12.9788 4.67219 13.0849 4.58705 13.1485 4.47233C13.212 4.35762 13.228 4.22252 13.1929 4.09616C13.1578 3.96979 13.0744 3.86228 12.9608 3.79679C12.8472 3.7313 12.7124 3.71307 12.5854 3.74604C10.1975 4.41706 8.05709 5.76975 6.42613 7.63852C4.79516 9.50728 3.74445 11.811 3.4026 14.2677C3.07508 14.3378 2.77409 14.4992 2.53446 14.7332C2.29484 14.9672 2.12636 15.2642 2.04854 15.59C1.97072 15.9157 1.98673 16.2569 2.09472 16.5739C2.20271 16.891 2.39826 17.1709 2.65875 17.3815C2.91924 17.592 3.23402 17.7245 3.56666 17.7635C3.8993 17.8026 4.23621 17.7467 4.53839 17.6022C4.84057 17.4578 5.09568 17.2308 5.2742 16.9474C5.45271 16.664 5.54734 16.3358 5.54712 16.0009ZM3 16.0009C3.00293 15.7977 3.08572 15.6038 3.23047 15.4611C3.37523 15.3184 3.57032 15.2384 3.77358 15.2384C3.97683 15.2384 4.17192 15.3184 4.31667 15.4611C4.46142 15.6038 4.5442 15.7977 4.54712 16.001C4.54419 16.2042 4.4614 16.3981 4.31665 16.5408C4.17189 16.6835 3.9768 16.7635 3.77354 16.7634C3.57029 16.7634 3.3752 16.6835 3.23045 16.5408C3.0857 16.3981 3.00292 16.2042 3 16.0009Z" fill="white"/>
</svg>
