<svg width="28" height="28" viewBox="0 0 28 28" fill="none" xmlns="http://www.w3.org/2000/svg">
<g clip-path="url(#clip0_1_248)">
<path d="M13.6 5.05322C14.7736 5.05322 15.725 4.10183 15.725 2.92822C15.725 1.75462 14.7736 0.803223 13.6 0.803223C12.4264 0.803223 11.475 1.75462 11.475 2.92822C11.475 4.10183 12.4264 5.05322 13.6 5.05322Z" stroke="white" stroke-miterlimit="10" stroke-linecap="round" stroke-linejoin="round"/>
<path d="M23.6938 5.05322C24.8674 5.05322 25.8188 4.10183 25.8188 2.92822C25.8188 1.75462 24.8674 0.803223 23.6938 0.803223C22.5202 0.803223 21.5688 1.75462 21.5688 2.92822C21.5688 4.10183 22.5202 5.05322 23.6938 5.05322Z" stroke="white" stroke-miterlimit="10" stroke-linecap="round" stroke-linejoin="round"/>
<path d="M3.50626 5.05322C4.67986 5.05322 5.63126 4.10183 5.63126 2.92822C5.63126 1.75462 4.67986 0.803223 3.50626 0.803223C2.33265 0.803223 1.38126 1.75462 1.38126 2.92822C1.38126 4.10183 2.33265 5.05322 3.50626 5.05322Z" stroke="white" stroke-miterlimit="10" stroke-linecap="round" stroke-linejoin="round"/>
<path d="M23.6938 5.05322V8.8251H3.50626V5.05322" stroke="white" stroke-miterlimit="10" stroke-linecap="round" stroke-linejoin="round"/>
<path d="M13.6 5.05322V12.5438" stroke="white" stroke-miterlimit="10" stroke-linecap="round" stroke-linejoin="round"/>
<path d="M20.4813 12.5406C20.4929 12.7042 20.5063 12.8674 20.5063 13.034C20.5063 16.8482 17.4142 19.9402 13.6 19.9402C9.78579 19.9402 6.69376 16.8482 6.69376 13.034C6.69376 12.8674 6.70709 12.7042 6.71867 12.5406" stroke="white" stroke-miterlimit="10" stroke-linecap="round" stroke-linejoin="round"/>
<path d="M26.4031 15.4625V12.5406H0.796875V15.4625L3.24132 15.9408C3.5113 17.1418 3.98576 18.2628 4.62443 19.2718L4.62235 19.2749L3.23202 21.3415L5.86155 23.9711L7.92822 22.5808L7.9313 22.5787C8.9403 23.2173 10.0614 23.6919 11.2623 23.9618L11.7406 26.4063H15.4594L15.9377 23.9618C17.1386 23.6919 18.2596 23.2174 19.2687 22.5788L19.2717 22.5808L21.3384 23.9711L23.9679 21.3416L22.5776 19.2749L22.5755 19.2719C23.2141 18.2628 23.6887 17.1418 23.9586 15.9409L26.4031 15.4625Z" stroke="white" stroke-miterlimit="10" stroke-linecap="round" stroke-linejoin="round"/>
</g>
<defs>
<clipPath id="clip0_1_248">
<rect width="27.2" height="27.2" fill="white"/>
</clipPath>
</defs>
</svg>
