<svg width="32" height="32" viewBox="0 0 32 32" fill="none" xmlns="http://www.w3.org/2000/svg">
<path d="M24.8887 13.6295C24.8887 8.72825 20.9012 4.74072 15.9999 4.74072C11.0986 4.74072 7.11108 8.72825 7.11108 13.6295C7.11108 18.5311 11.0986 22.5184 15.9999 22.5184C20.9012 22.5184 24.8887 18.5311 24.8887 13.6295ZM11.8536 20.1118C11.8734 17.8415 13.7248 15.9999 15.9999 15.9999C17.1049 15.9999 18.1477 16.4313 18.9336 17.2117C19.708 17.9912 20.1368 19.0206 20.1462 20.1117C18.9477 20.8811 17.5269 21.3332 15.9999 21.3332C14.473 21.3332 13.0522 20.8811 11.8536 20.1118ZM21.2477 19.2533C21.0665 18.1724 20.5642 17.1718 19.7716 16.3734C18.7594 15.3682 17.4197 14.8147 15.9999 14.8147C13.3648 14.8147 11.1804 16.739 10.7535 19.2546C9.2458 17.8475 8.29626 15.8496 8.29626 13.6295C8.29626 9.3816 11.752 5.9259 15.9999 5.9259C20.2478 5.9259 23.7035 9.3816 23.7035 13.6295C23.7035 15.8489 22.7546 17.8462 21.2477 19.2533Z" fill="white"/>
<path d="M15.9999 7.11108C14.0392 7.11108 12.4443 8.70598 12.4443 10.6666V13.6295C12.4443 13.9568 12.7097 14.2221 13.0369 14.2221H18.9628C19.2901 14.2221 19.5554 13.9568 19.5554 13.6295V10.6666C19.5554 8.70598 17.9605 7.11108 15.9999 7.11108ZM18.3702 13.037H13.6295V10.6666C13.6295 9.35962 14.6929 8.29626 15.9999 8.29626C17.3069 8.29626 18.3702 9.35962 18.3702 10.6666V13.037Z" fill="white"/>
<path d="M31.8263 26.2475L26.3282 20.7491C26.3204 20.501 26.3068 20.251 26.2916 20.0022C26.2444 19.236 26.1958 18.4437 26.405 17.9391C26.5992 17.4709 27.1764 16.9657 27.7343 16.4776C28.6226 15.7004 29.6295 14.8196 29.6295 13.6295C29.6295 12.4394 28.6226 11.5586 27.7343 10.7815C27.1764 10.293 26.5992 9.78841 26.405 9.31995C26.1961 8.81561 26.2447 8.02337 26.2916 7.25718C26.3659 6.04769 26.4426 4.79742 25.6377 3.99216C24.8327 3.1869 23.5827 3.26386 22.3726 3.33794C21.6061 3.3851 20.8136 3.434 20.3099 3.22451C19.8411 3.03036 19.3365 2.45311 18.8481 1.89524C18.0709 1.00694 17.1901 0 16 0C14.8099 0 13.9291 1.00694 13.1519 1.89524C12.6635 2.45311 12.1589 3.03036 11.6904 3.22451C11.1858 3.43313 10.3939 3.3851 9.62766 3.33794C8.41991 3.26444 7.16819 3.1869 6.36264 3.99187C5.55738 4.79684 5.63434 6.04741 5.70842 7.25689C5.75558 8.02308 5.80419 8.81561 5.59499 9.31966C5.40084 9.78841 4.82359 10.293 4.26572 10.7815C3.37742 11.5586 2.37048 12.4394 2.37048 13.6295C2.37048 14.8196 3.37742 15.7004 4.26572 16.4776C4.82359 16.9657 5.40084 17.4709 5.59499 17.9391C5.8039 18.4431 5.75529 19.236 5.70842 20.0022C5.69312 20.251 5.67955 20.5011 5.67174 20.7492L0.17374 26.2475C0.00418135 26.417 -0.0467441 26.6717 0.045269 26.8933C0.136703 27.1147 0.353137 27.259 0.592718 27.259H4.74083V31.4072C4.74083 31.6467 4.88493 31.8629 5.10657 31.9546C5.18007 31.985 5.25703 31.9997 5.33342 31.9997C5.48735 31.9997 5.63897 31.9396 5.7524 31.8261L12.7096 24.8689C12.8575 25.0288 13.0053 25.1966 13.1516 25.3638C13.9288 26.2521 14.8096 27.259 16 27.259C17.1904 27.259 18.0712 26.2521 18.8484 25.3638C18.9947 25.1966 19.1425 25.0288 19.2904 24.8689L26.2476 31.8261C26.361 31.9396 26.5126 31.9997 26.6666 31.9997C26.743 31.9997 26.8199 31.985 26.8934 31.9546C27.1151 31.8629 27.2592 31.6467 27.2592 31.4072V27.259H31.4073C31.6469 27.259 31.8633 27.1147 31.9547 26.8933C32.0467 26.6717 31.9958 26.417 31.8263 26.2475ZM5.33342 26.0739H2.02326L5.81085 22.2861C5.9148 22.6523 6.08309 22.9877 6.36235 23.2672C7.16732 24.0721 8.41731 23.9946 9.62737 23.9211C10.3933 23.8742 11.1858 23.8262 11.6901 24.0345C11.7291 24.0507 11.7687 24.0733 11.8081 24.0945L5.92601 29.9766V26.6665C5.92601 26.3392 5.66096 26.0739 5.33342 26.0739ZM17.9563 24.5837C17.3154 25.3163 16.6525 26.0739 16 26.0739C15.3475 26.0739 14.6846 25.3163 14.0437 24.5837C13.4659 23.9228 12.8684 23.24 12.1444 22.9396C11.6823 22.7481 11.1557 22.6948 10.6106 22.6948C10.2619 22.6948 9.90601 22.7163 9.55445 22.7382C8.60799 22.7967 7.62738 22.8569 7.20059 22.4292C6.77293 22.0016 6.83312 21.0218 6.89128 20.0745C6.94654 19.174 7.00384 18.2429 6.68989 17.4854C6.38955 16.7609 5.70639 16.1634 5.0461 15.5855C4.31317 14.9446 3.55566 14.2817 3.55566 13.6295C3.55566 12.9773 4.31317 12.3144 5.0461 11.6735C5.70639 11.0957 6.38955 10.4982 6.68989 9.77394C7.00384 9.01642 6.94683 8.085 6.89157 7.18426C6.83341 6.23693 6.77322 5.25748 7.20059 4.82982C7.62767 4.40187 8.6077 4.46206 9.55503 4.5208C10.4549 4.57635 11.3869 4.63335 12.1444 4.31941C12.8687 4.01906 13.4662 3.33591 14.044 2.67562C14.6849 1.94269 15.3478 1.18518 16 1.18518C16.6522 1.18518 17.3151 1.94269 17.956 2.67562C18.5338 3.33591 19.1313 4.01906 19.8556 4.31941C20.6131 4.63335 21.5445 4.57606 22.4453 4.52109C23.3932 4.46177 24.3723 4.40274 24.7997 4.83011C25.2271 5.25748 25.1669 6.23722 25.1087 7.18455C25.0535 8.08529 24.9962 9.01642 25.3101 9.77394C25.6105 10.4982 26.2936 11.0957 26.9539 11.6735C27.6868 12.3144 28.4443 12.9773 28.4443 13.6295C28.4443 14.2817 27.6868 14.9446 26.9539 15.5855C26.2936 16.1634 25.6105 16.7609 25.3101 17.4854C24.9962 18.2423 25.0532 19.174 25.1084 20.0745C25.1666 21.0218 25.2268 22.0016 24.7994 22.4292C24.372 22.8569 23.3926 22.7961 22.4453 22.7382C21.5448 22.6821 20.6137 22.626 19.8556 22.9396C19.1316 23.24 18.5341 23.9228 17.9563 24.5837ZM26.6666 26.0739C26.339 26.0739 26.074 26.3392 26.074 26.6665V29.9766L20.1919 24.0945C20.2313 24.0733 20.2709 24.0507 20.3099 24.0345C20.8133 23.8262 21.6061 23.8742 22.3726 23.9211C23.5815 23.9952 24.8324 24.0727 25.6374 23.2672C25.9168 22.9877 26.0851 22.6523 26.1891 22.286L29.9767 26.0739H26.6666Z" fill="white"/>
</svg>
