<svg width="28" height="28" viewBox="0 0 28 28" fill="none" xmlns="http://www.w3.org/2000/svg">
<g clip-path="url(#clip0_1_206)">
<g clip-path="url(#clip1_1_206)">
<path d="M20.2344 10.5831H15.5859L13.3984 12.7706L11.2109 10.5831H6.5625V1.83313H20.2344V10.5831Z" stroke="white" stroke-miterlimit="10" stroke-linecap="round" stroke-linejoin="round"/>
<path d="M3.82812 3.47375L2.1875 1.83313L0.546875 3.47375" stroke="white" stroke-miterlimit="10" stroke-linecap="round" stroke-linejoin="round"/>
<path d="M2.1875 22.12H0.546875" stroke="white" stroke-miterlimit="10" stroke-linecap="round" stroke-linejoin="round"/>
<path d="M2.1875 16.6512H0.546875" stroke="white" stroke-miterlimit="10" stroke-linecap="round" stroke-linejoin="round"/>
<path d="M2.1875 19.3856H0.546875" stroke="white" stroke-miterlimit="10" stroke-linecap="round" stroke-linejoin="round"/>
<path d="M2.1875 11.1825H0.546875" stroke="white" stroke-miterlimit="10" stroke-linecap="round" stroke-linejoin="round"/>
<path d="M2.1875 13.9169H0.546875" stroke="white" stroke-miterlimit="10" stroke-linecap="round" stroke-linejoin="round"/>
<path d="M2.1875 5.71375H0.546875" stroke="white" stroke-miterlimit="10" stroke-linecap="round" stroke-linejoin="round"/>
<path d="M2.1875 8.44812H0.546875" stroke="white" stroke-miterlimit="10" stroke-linecap="round" stroke-linejoin="round"/>
<path d="M25.8125 22.8856L27.4531 24.5262L25.8125 26.1669" stroke="white" stroke-miterlimit="10" stroke-linecap="round" stroke-linejoin="round"/>
<path d="M27.4531 24.5284H2.1875V1.83313" stroke="white" stroke-miterlimit="10" stroke-linecap="round" stroke-linejoin="round"/>
<path d="M4.48438 24.5262V26.1669" stroke="white" stroke-miterlimit="10" stroke-linecap="round" stroke-linejoin="round"/>
<path d="M9.95312 24.5262V26.1669" stroke="white" stroke-miterlimit="10" stroke-linecap="round" stroke-linejoin="round"/>
<path d="M7.21875 24.5262V26.1669" stroke="white" stroke-miterlimit="10" stroke-linecap="round" stroke-linejoin="round"/>
<path d="M15.4219 24.5262V26.1669" stroke="white" stroke-miterlimit="10" stroke-linecap="round" stroke-linejoin="round"/>
<path d="M12.6875 24.5262V26.1669" stroke="white" stroke-miterlimit="10" stroke-linecap="round" stroke-linejoin="round"/>
<path d="M20.8906 24.5262V26.1669" stroke="white" stroke-miterlimit="10" stroke-linecap="round" stroke-linejoin="round"/>
<path d="M18.1562 24.5262V26.1669" stroke="white" stroke-miterlimit="10" stroke-linecap="round" stroke-linejoin="round"/>
<path d="M23.625 24.5262V26.1669" stroke="white" stroke-miterlimit="10" stroke-linecap="round" stroke-linejoin="round"/>
<path d="M9.07812 4.02063V8.39563" stroke="white" stroke-miterlimit="10" stroke-linecap="round" stroke-linejoin="round"/>
<path d="M11.1302 4.07751L9.20021 6.11205L11.2656 8.39734" stroke="white" stroke-miterlimit="10" stroke-linecap="round" stroke-linejoin="round"/>
<path d="M14.4375 6.20813H13.3438V4.02063H14.4375C15.0416 4.02063 15.5312 4.5103 15.5312 5.11438C15.5312 5.71846 15.0416 6.20813 14.4375 6.20813Z" stroke="white" stroke-miterlimit="10" stroke-linecap="round" stroke-linejoin="round"/>
<path d="M13.3438 8.39563V6.20813" stroke="white" stroke-miterlimit="10" stroke-linecap="round" stroke-linejoin="round"/>
<path d="M17.7188 6.47937V8.39343" stroke="white" stroke-miterlimit="10" stroke-linecap="round" stroke-linejoin="round"/>
<circle cx="17.7188" cy="4.02063" r="0.546875" fill="white"/>
<path d="M24.1719 9.48938H27.4531V12.7706" stroke="white" stroke-miterlimit="10" stroke-linecap="round" stroke-linejoin="round"/>
<path d="M4.48438 22.0653L10.1172 14.6825L13.7785 16.2843" stroke="white" stroke-miterlimit="10" stroke-linecap="round" stroke-linejoin="round"/>
<path d="M24.3546 12.7385L27.3921 9.54626" stroke="white" stroke-miterlimit="10" stroke-linecap="round" stroke-linejoin="round"/>
<path d="M16.2228 17.4413L18.8062 18.5717L20.875 16.3975" stroke="white" stroke-miterlimit="10" stroke-linecap="round" stroke-linejoin="round"/>
<circle cx="22.6639" cy="14.5338" r="0.546875" fill="white"/>
<path d="M15.0391 18.1825C15.7941 18.1825 16.4062 17.5704 16.4062 16.8153C16.4062 16.0602 15.7941 15.4481 15.0391 15.4481C14.284 15.4481 13.6719 16.0602 13.6719 16.8153C13.6719 17.5704 14.284 18.1825 15.0391 18.1825Z" stroke="white" stroke-miterlimit="10" stroke-linecap="round" stroke-linejoin="round"/>
</g>
</g>
<defs>
<clipPath id="clip0_1_206">
<rect width="28" height="28" fill="white"/>
</clipPath>
<clipPath id="clip1_1_206">
<rect width="28" height="28" fill="white"/>
</clipPath>
</defs>
</svg>
