<svg width="6" height="10" viewBox="0 0 6 10" fill="none" xmlns="http://www.w3.org/2000/svg">
<path d="M0.21959 0.21959C0.0789867 0.360236 0 0.550967 0 0.74984C0 0.948713 0.0789867 1.13944 0.21959 1.28009L3.93209 4.99259L0.21959 8.70509C0.0829714 8.84654 0.00737529 9.03599 0.00908411 9.23264C0.0107929 9.42929 0.0896698 9.6174 0.228726 9.75645C0.367782 9.89551 0.555891 9.97439 0.752539 9.9761C0.949186 9.9778 1.13864 9.90221 1.28009 9.76559L5.52284 5.52284C5.66344 5.38219 5.74243 5.19146 5.74243 4.99259C5.74243 4.79372 5.66344 4.60299 5.52284 4.46234L1.28009 0.21959C1.13944 0.0789866 0.948713 0 0.74984 0C0.550967 0 0.360236 0.0789866 0.21959 0.21959Z" fill="white"/>
</svg>
