<svg width="32" height="28" viewBox="0 0 32 28" fill="none" xmlns="http://www.w3.org/2000/svg">
<path d="M9.41197 22.5409C9.24062 22.5409 9.07323 22.6268 8.97624 22.7831L7.40545 25.3142C7.25627 25.5546 7.33019 25.8704 7.57058 26.0195C7.81099 26.1687 8.12675 26.0948 8.27593 25.8544L9.84672 23.3233C9.9959 23.0829 9.92198 22.7671 9.68159 22.6179C9.59752 22.5658 9.50415 22.5409 9.41197 22.5409Z" fill="#E9292F"/>
<path d="M16.0033 23.8089C15.7204 23.8089 15.4911 24.0383 15.4911 24.3212V27.2114C15.4911 27.4943 15.7204 27.7236 16.0033 27.7236C16.2862 27.7236 16.5156 27.4943 16.5156 27.2114V24.3212C16.5156 24.0383 16.2862 23.8089 16.0033 23.8089Z" fill="#E9292F"/>
<path d="M22.5879 22.5409C22.4957 22.5409 22.4024 22.5657 22.3183 22.6179C22.0779 22.7671 22.0039 23.0829 22.1531 23.3233L23.7239 25.8544C23.8731 26.0948 24.1889 26.1687 24.4292 26.0195C24.6696 25.8704 24.7436 25.5546 24.5944 25.3142L23.0236 22.7831C22.9266 22.6268 22.7592 22.5409 22.5879 22.5409Z" fill="#E9292F"/>
<path d="M15.9966 23.8089C15.7137 23.8089 15.4844 24.0383 15.4844 24.3212V27.2114C15.4844 27.4943 15.7137 27.7236 15.9966 27.7236C16.2795 27.7236 16.5089 27.4943 16.5089 27.2114V24.3212C16.5088 24.0383 16.2795 23.8089 15.9966 23.8089Z" fill="#E9292F"/>
<path d="M24.1598 1.62708C23.9884 1.62708 23.821 1.713 23.724 1.86927L22.1533 4.40039C22.0041 4.64076 22.078 4.95658 22.3184 5.10573C22.5588 5.25492 22.8745 5.18094 23.0237 4.9406L24.5945 2.40948C24.7437 2.16911 24.6698 1.8533 24.4294 1.70414C24.3453 1.65194 24.252 1.62708 24.1598 1.62708Z" fill="#E9292F"/>
<path d="M15.9966 7.15256e-06C15.7137 7.15256e-06 15.4844 0.229327 15.4844 0.512251V3.40243C15.4844 3.68533 15.7137 3.91467 15.9966 3.91467C16.2795 3.91467 16.5089 3.68535 16.5089 3.40243V0.512228C16.5088 0.229352 16.2795 7.15256e-06 15.9966 7.15256e-06Z" fill="#E9292F"/>
<path d="M7.84044 1.62709C7.74824 1.62709 7.65494 1.65195 7.57082 1.70414C7.33045 1.85333 7.2565 2.16912 7.40569 2.40949L8.97648 4.94061C9.12564 5.18097 9.44146 5.2549 9.6818 5.10574C9.92217 4.95656 9.99612 4.64076 9.84693 4.4004L8.27614 1.86928C8.17917 1.71303 8.01177 1.62709 7.84044 1.62709Z" fill="#E9292F"/>
<path d="M16.0036 7.15256e-06C15.7207 7.15256e-06 15.4913 0.229327 15.4913 0.512251V3.40243C15.4913 3.68533 15.7207 3.91467 16.0036 3.91467C16.2865 3.91467 16.5158 3.68535 16.5158 3.40243V0.512228C16.5158 0.229352 16.2865 7.15256e-06 16.0036 7.15256e-06Z" fill="#E9292F"/>
<path d="M31.4877 13.3471C31.3593 13.3471 31.2307 13.395 31.1312 13.4915C25.9522 18.5127 20.5525 20.9239 15.0824 20.6579C10.7138 20.4455 7.09835 18.5258 4.83467 16.9528C2.36402 15.2359 0.917309 13.545 0.902962 13.5281C0.72001 13.3125 0.396807 13.2858 0.181106 13.4687C-0.0346193 13.6515 -0.0614659 13.9745 0.121267 14.1903C0.182494 14.2626 1.65035 15.9822 4.22068 17.7736C5.73051 18.826 7.30896 19.6833 8.91216 20.3219C10.9232 21.1229 12.9789 21.5801 15.022 21.6807C20.7903 21.9646 26.4502 19.4568 31.8443 14.2271C32.0474 14.0302 32.0524 13.7059 31.8555 13.5028C31.755 13.3991 31.6214 13.3471 31.4877 13.3471Z" fill="#1A4174"/>
<path d="M16.0983 6.00756C10.634 6.00756 5.27549 8.51894 0.15567 13.4828C-0.047431 13.6797 -0.0524549 14.004 0.14448 14.2071C0.341391 14.4102 0.665706 14.4152 0.868807 14.2183C6.04779 9.19711 11.4475 6.78585 16.9176 7.05198C21.2862 7.26438 24.9016 9.18405 27.1653 10.7571C29.636 12.4739 31.0827 14.1649 31.097 14.1818C31.28 14.3974 31.6032 14.424 31.8189 14.2412C32.0346 14.0583 32.0615 13.7354 31.8787 13.5196C31.8175 13.4472 30.3496 11.7277 27.7793 9.9362C26.2695 8.88389 24.691 8.02653 23.0878 7.38794C21.0768 6.58693 19.0211 6.12977 16.978 6.02919C16.6847 6.01477 16.391 6.00756 16.0983 6.00756Z" fill="#1A4174"/>
<path d="M15.9996 6.51034C15.0078 6.51034 14.0453 6.70472 13.139 7.08806C12.2639 7.45821 11.478 7.988 10.8033 8.66271C10.1286 9.33742 9.59878 10.1233 9.22863 10.9984C8.8453 11.9047 8.65094 12.8672 8.65094 13.859C8.65094 14.8508 8.8453 15.8133 9.22863 16.7196C9.59878 17.5948 10.1286 18.3806 10.8033 19.0553C11.478 19.73 12.2639 20.2598 13.139 20.63C14.0453 21.0133 15.0078 21.2077 15.9996 21.2077C16.9915 21.2077 17.9539 21.0133 18.8602 20.63C19.7354 20.2598 20.5212 19.73 21.1959 19.0553C21.8706 18.3806 22.4004 17.5948 22.7706 16.7196C23.1539 15.8133 23.3483 14.8509 23.3483 13.859C23.3483 12.8671 23.1539 11.9047 22.7706 10.9984C22.4004 10.1233 21.8706 9.33744 21.1959 8.66271C20.5212 7.98798 19.7354 7.45818 18.8602 7.08806C17.9539 6.70472 16.9915 6.51034 15.9996 6.51034ZM15.9996 20.1832C12.5125 20.1832 9.67543 17.3462 9.67543 13.859C9.67543 10.3719 12.5125 7.53483 15.9996 7.53483C19.4868 7.53483 22.3238 10.3718 22.3238 13.859C22.3238 17.3462 19.4868 20.1832 15.9996 20.1832Z" fill="#1A4174"/>
<path d="M16.0989 17.7857C15.7601 17.805 15.4289 17.7809 15.1106 17.7184C15.2697 17.3487 15.3479 16.9375 15.3235 16.5083C15.2393 15.0308 13.9734 13.9013 12.496 13.9854C12.3017 13.9965 12.1134 14.0282 11.9331 14.0779C11.9329 14.0746 11.9326 14.0713 11.9324 14.068C11.8085 11.8908 13.4729 10.0254 15.6501 9.90144C17.8272 9.7775 19.6927 11.442 19.8166 13.6191C19.9406 15.7963 18.2761 17.6617 16.0989 17.7857Z" fill="#E9292F"/>
</svg>
