<svg width="24" height="26" viewBox="0 0 24 26" fill="none" xmlns="http://www.w3.org/2000/svg">
<path d="M7.00488 19.6176C6.70488 19.6176 6.50488 19.5119 6.30488 19.3007C5.90488 18.8783 5.90488 18.2446 6.30488 17.8222L16.3049 7.26117C16.7049 6.83873 17.3049 6.83873 17.7049 7.26117C18.1049 7.68361 18.1049 8.31727 17.7049 8.73971L7.70488 19.3007C7.50488 19.5119 7.30488 19.6176 7.00488 19.6176Z" fill="white"/>
<path d="M17.0049 18.5615C16.4049 18.5615 16.0049 18.139 16.0049 17.5054V9.05654H8.00488C7.40488 9.05654 7.00488 8.6341 7.00488 8.00044C7.00488 7.36678 7.40488 6.94434 8.00488 6.94434H17.0049C17.6049 6.94434 18.0049 7.36678 18.0049 8.00044V17.5054C18.0049 18.139 17.6049 18.5615 17.0049 18.5615Z" fill="white"/>
</svg>
