<svg width="65" height="73" viewBox="0 0 65 73" fill="none" xmlns="http://www.w3.org/2000/svg">
<rect width="65" height="65" rx="32.5" fill="url(#paint0_radial_15_1235)" fill-opacity="0.9"/>
<path d="M34 17.2549C34.3946 17.2549 34.7612 17.3277 35.1016 17.4707L35.1064 17.4727L47.9072 22.4922L47.9082 22.4932C48.4752 22.7107 48.9207 23.0581 49.251 23.5371C49.5811 24.0159 49.7461 24.5531 49.7451 25.1562V41.8623C49.7451 42.6553 49.4601 43.3296 48.8818 43.8975C48.3038 44.465 47.6149 44.746 46.8008 44.7451H40.6553V32.1963H27.3447V44.7451H21.2002C20.3867 44.7451 19.6974 44.4643 19.1191 43.8975C18.541 43.3307 18.2559 42.6565 18.2549 41.8623V25.1572C18.2549 24.5537 18.4207 24.0161 18.751 23.5371C19.0813 23.058 19.5258 22.7107 20.0918 22.4932L20.0928 22.4922L32.8936 17.4727L32.8984 17.4707C33.2388 17.3277 33.6054 17.2549 34 17.2549ZM38.5449 42.1182V44.7451H35.8555V42.1182H38.5449ZM32.1445 42.1182V44.7451H29.4551V42.1182H32.1445ZM35.3447 37.4121V40.0391H32.6553V37.4121H35.3447ZM47.0547 24.9834L46.8936 24.9199L34.0928 19.8994L34 19.8633L33.9072 19.8994L21.1064 24.9199L20.9453 24.9834V42.1182H24.6553V32.4512C24.6553 31.6583 24.9404 30.9848 25.5195 30.418C26.0266 29.9218 26.6176 29.6442 27.3018 29.582L27.6006 29.5684H40.4004C41.2136 29.5685 41.9031 29.85 42.4824 30.418C43.0616 30.9858 43.3456 31.6588 43.3447 32.4502V42.1182H47.0547V24.9834Z" fill="white" stroke="#1A4174" stroke-width="0.510007"/>
<mask id="path-3-inside-1_15_1235" fill="white">
<path d="M25 63H41V73H25V63Z"/>
</mask>
<g clip-path="url(#paint1_diamond_15_1235_clip_path)" data-figma-skip-parse="true" mask="url(#path-3-inside-1_15_1235)"><g transform="matrix(0.008 0 0 0.01 33 63)"><rect x="0" y="0" width="1125" height="1100" fill="url(#paint1_diamond_15_1235)" opacity="1" shape-rendering="crispEdges"/><rect x="0" y="0" width="1125" height="1100" transform="scale(1 -1)" fill="url(#paint1_diamond_15_1235)" opacity="1" shape-rendering="crispEdges"/><rect x="0" y="0" width="1125" height="1100" transform="scale(-1 1)" fill="url(#paint1_diamond_15_1235)" opacity="1" shape-rendering="crispEdges"/><rect x="0" y="0" width="1125" height="1100" transform="scale(-1)" fill="url(#paint1_diamond_15_1235)" opacity="1" shape-rendering="crispEdges"/></g></g><path d="M25 63V53H17V63H25ZM41 63H49V53H41V63ZM25 63V73H41V63V53H25V63ZM41 63H33V73H41H49V63H41ZM25 73H33V63H25H17V73H25Z" data-figma-gradient-fill="{&#34;type&#34;:&#34;GRADIENT_DIAMOND&#34;,&#34;stops&#34;:[{&#34;color&#34;:{&#34;r&#34;:0.098039217293262482,&#34;g&#34;:0.40000000596046448,&#34;b&#34;:0.70980393886566162,&#34;a&#34;:1.0},&#34;position&#34;:0.99999988079071045},{&#34;color&#34;:{&#34;r&#34;:0.0,&#34;g&#34;:0.0,&#34;b&#34;:0.0,&#34;a&#34;:0.0},&#34;position&#34;:1.0}],&#34;stopsVar&#34;:[{&#34;color&#34;:{&#34;r&#34;:0.098039217293262482,&#34;g&#34;:0.40000000596046448,&#34;b&#34;:0.70980393886566162,&#34;a&#34;:1.0},&#34;position&#34;:0.99999988079071045},{&#34;color&#34;:{&#34;r&#34;:0.0,&#34;g&#34;:0.0,&#34;b&#34;:0.0,&#34;a&#34;:0.0},&#34;position&#34;:1.0}],&#34;transform&#34;:{&#34;m00&#34;:16.0,&#34;m01&#34;:0.0,&#34;m02&#34;:25.0,&#34;m10&#34;:0.0,&#34;m11&#34;:20.0,&#34;m12&#34;:53.0},&#34;opacity&#34;:1.0,&#34;blendMode&#34;:&#34;NORMAL&#34;,&#34;visible&#34;:true}" mask="url(#path-3-inside-1_15_1235)"/>
<defs>
<clipPath id="paint1_diamond_15_1235_clip_path"><path d="M25 63V53H17V63H25ZM41 63H49V53H41V63ZM25 63V73H41V63V53H25V63ZM41 63H33V73H41H49V63H41ZM25 73H33V63H25H17V73H25Z" mask="url(#path-3-inside-1_15_1235)"/></clipPath><radialGradient id="paint0_radial_15_1235" cx="0" cy="0" r="1" gradientUnits="userSpaceOnUse" gradientTransform="translate(32.5 44.3508) rotate(90) scale(92.4275)">
<stop stop-color="#005FBF"/>
<stop offset="1" stop-color="#072358"/>
</radialGradient>
<linearGradient id="paint1_diamond_15_1235" x1="0" y1="0" x2="500" y2="500" gradientUnits="userSpaceOnUse">
<stop offset="1" stop-color="#1966B5"/>
<stop offset="1" stop-opacity="0"/>
</linearGradient>
</defs>
</svg>
