<svg width="65" height="73" viewBox="0 0 65 73" fill="none" xmlns="http://www.w3.org/2000/svg">
<rect width="65" height="65" rx="32.5" fill="url(#paint0_radial_15_1266)" fill-opacity="0.9"/>
<mask id="path-2-inside-1_15_1266" fill="white">
<path fill-rule="evenodd" clip-rule="evenodd" d="M24.6175 15.9724C24.2839 16.0944 24.0172 16.3857 23.9091 16.7461L23.8256 17.0243L24.412 19.9868C25.0117 23.0168 25.1285 23.4301 25.4491 23.659C25.5908 23.7601 27.3341 24.4193 32.0852 26.1681C32.6066 26.3601 33.0333 26.5317 33.0333 26.5496C33.0333 26.5674 32.5266 27.4258 31.9074 28.4573C31.2882 29.4888 30.7618 30.4375 30.7377 30.5656C30.6454 31.0567 30.9772 31.6311 31.4575 31.8119C31.5679 31.8534 32.2184 31.8824 33.0409 31.8824H34.4369L34.6499 31.7752C34.767 31.7164 35.6014 30.935 36.5042 30.0387L38.1457 28.4093L38.7995 28.6454C39.159 28.7754 41.0399 29.469 42.9792 30.187C45.3622 31.0692 46.6253 31.5044 46.8759 31.5294C47.1262 31.5545 47.3725 31.53 47.6344 31.4541L48.0223 31.3415L48.3997 30.9644C48.8672 30.4971 49 30.1483 49 29.3873C49 27.9549 48.4441 26.4347 47.4805 25.2325C46.8078 24.3931 45.7039 23.5832 44.7147 23.2034C44.4554 23.1038 43.4901 22.8414 42.5695 22.6203L40.8958 22.2183L39.0768 19.7999C38.0764 18.4698 37.1733 17.3192 37.07 17.2431L36.8821 17.1048H35.2952H33.7083L33.5246 17.2417C33.2233 17.4663 33.0831 17.7065 33.0494 18.056L33.0176 18.3862L33.365 19.4267C33.556 19.9989 33.6991 20.4804 33.6828 20.4966C33.6428 20.5366 29.1595 19.4753 29.1028 19.4125C29.0782 19.3852 28.5782 18.6429 27.9918 17.7629L26.9255 16.1629L26.6696 16.0383L26.4137 15.9137L25.6486 15.8944L24.8836 15.875L24.6175 15.9724ZM35.7738 19.4037C35.7925 19.4543 35.933 19.8723 36.0859 20.3325L36.3639 21.1692L36.7443 21.2514C36.9536 21.2966 37.1921 21.3492 37.2745 21.3684L37.4243 21.4031L36.6586 20.383C35.9701 19.4659 35.6766 19.141 35.7738 19.4037ZM26.8149 20.2595C26.8337 20.3509 26.9081 20.7381 26.9801 21.12C27.0523 21.502 27.1489 21.8493 27.1949 21.8918C27.2409 21.9343 27.6977 22.1207 28.21 22.306C28.7222 22.4914 29.8 22.8866 30.605 23.1841C31.41 23.4817 32.5603 23.9053 33.1613 24.1256L34.2541 24.526L34.3828 24.3497C34.5616 24.1046 34.9702 23.9122 35.3092 23.9135C36.1366 23.9167 36.6781 24.8196 36.2983 25.5628C36.2279 25.7005 35.7793 26.4625 35.3013 27.2563C34.8234 28.05 34.3988 28.7656 34.3578 28.8464C34.3168 28.9272 35.1322 28.1501 36.1697 27.1194C38.0758 25.2259 38.3053 25.0415 38.7547 25.0415C39.3934 25.0415 39.9719 25.7241 39.856 26.341L39.8131 26.5691L39.9658 26.6342C40.2538 26.757 46.6272 29.0929 46.674 29.0929C46.7858 29.0929 46.4999 28.022 46.2619 27.5487L46.1366 27.2997H45.1367H44.1369L43.9485 27.2024C43.6879 27.0679 43.4299 26.7449 43.348 26.4508C43.3103 26.315 43.2792 25.9631 43.279 25.6689L43.2786 25.134L38.1393 23.9262C35.3126 23.2619 32.2965 22.5538 31.4366 22.3524C28.4955 21.6638 27.9437 21.5202 27.7775 21.3994C27.6861 21.333 27.4682 21.0724 27.2934 20.8205C27.1185 20.5685 26.9316 20.3019 26.878 20.2279L26.7806 20.0935L26.8149 20.2595ZM20.0603 27.3668C18.7247 28.0322 17.549 28.6354 17.4475 28.7075C17.3461 28.7795 17.2039 28.9543 17.1315 29.0958L17 29.3532V32.4882V35.6232L17.1694 35.9119L17.3389 36.2006L19.8653 37.4619L22.3917 38.7233H22.7209H23.0501L25.5286 37.4779L28.0071 36.2326L28.2084 35.9774L28.4096 35.7222V32.4858V29.2493L28.2362 28.9877L28.0628 28.7261L25.5511 27.4725C23.8956 26.6463 22.9456 26.2085 22.7641 26.1881L22.4886 26.1571L20.0603 27.3668ZM21.6578 29.1213L20.6941 29.6076L21.7071 30.1141L22.72 30.6206L23.6853 30.1401C24.2163 29.8758 24.6507 29.6395 24.6507 29.6149C24.6507 29.5565 22.8099 28.6269 22.7033 28.6314C22.6584 28.6334 22.1879 28.8538 21.6578 29.1213ZM19.262 33.0443V34.6047L20.3922 35.1696C21.0138 35.4803 21.5377 35.7345 21.5564 35.7345C21.5751 35.7345 21.5904 35.0324 21.5904 34.1741V32.6137L20.4602 32.0488C19.8386 31.7381 19.3146 31.4839 19.296 31.4839C19.2773 31.4839 19.262 32.186 19.262 33.0443ZM24.9667 32.0523L23.8524 32.6138V34.1741C23.8524 35.0324 23.8671 35.7345 23.8851 35.7345C23.9032 35.7345 24.4121 35.4884 25.0161 35.1875L26.1143 34.6405V33.0622C26.1143 32.1941 26.1068 31.4855 26.0977 31.4874C26.0886 31.4893 25.5797 31.7436 24.9667 32.0523ZM36.9808 34.3733C36.7957 34.4845 36.6551 34.6404 36.5567 34.8432L36.4095 35.1467L36.4519 35.456C36.5017 35.8186 36.7613 36.1782 37.0962 36.3487L37.3243 36.4649L42.0312 36.465L46.738 36.4651V40.4501V44.4351H46.5884C46.4917 44.435 46.3391 44.3195 46.1573 44.1088C45.636 43.5045 44.7666 43.2087 43.9868 43.3704C43.5402 43.4629 42.8998 43.8679 42.6721 44.2017L42.5135 44.4341L40.0353 44.4346L37.5572 44.4351V41.4387V38.4424L37.4206 38.1998C37.3454 38.0664 37.1756 37.883 37.043 37.7923L36.8021 37.6274L34.2358 37.609L31.6694 37.5907L31.3701 37.7418L31.0707 37.893L29.9517 39.5535C29.3362 40.4667 28.7452 41.3633 28.6384 41.5459L28.4441 41.878L28.4436 43.8705L28.443 45.863L28.5594 46.0907C28.6233 46.216 28.7906 46.4103 28.9312 46.5224L29.1867 46.7264L30.1287 46.7499L31.0707 46.7734L31.2544 47.0341C31.3554 47.1775 31.58 47.3848 31.7533 47.4948C32.7386 48.1198 33.941 47.9623 34.6893 47.1104L34.9958 46.7613L38.7547 46.763L42.5135 46.7647L42.6972 47.0297C42.7983 47.1755 43.0228 47.3848 43.1962 47.4948C44.1814 48.1198 45.3838 47.9623 46.1321 47.1104L46.4387 46.7613L47.2659 46.7605L48.0932 46.7596L48.3812 46.6204C48.5732 46.5276 48.7244 46.3873 48.8346 46.1995L49 45.9177V40.4375V34.9572L48.8503 34.7376C48.768 34.6169 48.6161 34.4555 48.5128 34.3791L48.325 34.2402L42.7914 34.2236L37.2578 34.2069L36.9808 34.3733ZM31.5796 41.2321L30.7048 42.5454V43.4903V44.4351L30.8877 44.4346L31.0707 44.4341L31.2292 44.2017C31.4569 43.8679 32.0974 43.4629 32.5439 43.3704C33.3238 43.2087 34.1932 43.5045 34.7145 44.1088C34.8962 44.3195 35.0489 44.435 35.1455 44.4351H35.2952V42.1769V39.9187H33.8748H32.4545L31.5796 41.2321Z"/>
</mask>
<path fill-rule="evenodd" clip-rule="evenodd" d="M24.6175 15.9724C24.2839 16.0944 24.0172 16.3857 23.9091 16.7461L23.8256 17.0243L24.412 19.9868C25.0117 23.0168 25.1285 23.4301 25.4491 23.659C25.5908 23.7601 27.3341 24.4193 32.0852 26.1681C32.6066 26.3601 33.0333 26.5317 33.0333 26.5496C33.0333 26.5674 32.5266 27.4258 31.9074 28.4573C31.2882 29.4888 30.7618 30.4375 30.7377 30.5656C30.6454 31.0567 30.9772 31.6311 31.4575 31.8119C31.5679 31.8534 32.2184 31.8824 33.0409 31.8824H34.4369L34.6499 31.7752C34.767 31.7164 35.6014 30.935 36.5042 30.0387L38.1457 28.4093L38.7995 28.6454C39.159 28.7754 41.0399 29.469 42.9792 30.187C45.3622 31.0692 46.6253 31.5044 46.8759 31.5294C47.1262 31.5545 47.3725 31.53 47.6344 31.4541L48.0223 31.3415L48.3997 30.9644C48.8672 30.4971 49 30.1483 49 29.3873C49 27.9549 48.4441 26.4347 47.4805 25.2325C46.8078 24.3931 45.7039 23.5832 44.7147 23.2034C44.4554 23.1038 43.4901 22.8414 42.5695 22.6203L40.8958 22.2183L39.0768 19.7999C38.0764 18.4698 37.1733 17.3192 37.07 17.2431L36.8821 17.1048H35.2952H33.7083L33.5246 17.2417C33.2233 17.4663 33.0831 17.7065 33.0494 18.056L33.0176 18.3862L33.365 19.4267C33.556 19.9989 33.6991 20.4804 33.6828 20.4966C33.6428 20.5366 29.1595 19.4753 29.1028 19.4125C29.0782 19.3852 28.5782 18.6429 27.9918 17.7629L26.9255 16.1629L26.6696 16.0383L26.4137 15.9137L25.6486 15.8944L24.8836 15.875L24.6175 15.9724ZM35.7738 19.4037C35.7925 19.4543 35.933 19.8723 36.0859 20.3325L36.3639 21.1692L36.7443 21.2514C36.9536 21.2966 37.1921 21.3492 37.2745 21.3684L37.4243 21.4031L36.6586 20.383C35.9701 19.4659 35.6766 19.141 35.7738 19.4037ZM26.8149 20.2595C26.8337 20.3509 26.9081 20.7381 26.9801 21.12C27.0523 21.502 27.1489 21.8493 27.1949 21.8918C27.2409 21.9343 27.6977 22.1207 28.21 22.306C28.7222 22.4914 29.8 22.8866 30.605 23.1841C31.41 23.4817 32.5603 23.9053 33.1613 24.1256L34.2541 24.526L34.3828 24.3497C34.5616 24.1046 34.9702 23.9122 35.3092 23.9135C36.1366 23.9167 36.6781 24.8196 36.2983 25.5628C36.2279 25.7005 35.7793 26.4625 35.3013 27.2563C34.8234 28.05 34.3988 28.7656 34.3578 28.8464C34.3168 28.9272 35.1322 28.1501 36.1697 27.1194C38.0758 25.2259 38.3053 25.0415 38.7547 25.0415C39.3934 25.0415 39.9719 25.7241 39.856 26.341L39.8131 26.5691L39.9658 26.6342C40.2538 26.757 46.6272 29.0929 46.674 29.0929C46.7858 29.0929 46.4999 28.022 46.2619 27.5487L46.1366 27.2997H45.1367H44.1369L43.9485 27.2024C43.6879 27.0679 43.4299 26.7449 43.348 26.4508C43.3103 26.315 43.2792 25.9631 43.279 25.6689L43.2786 25.134L38.1393 23.9262C35.3126 23.2619 32.2965 22.5538 31.4366 22.3524C28.4955 21.6638 27.9437 21.5202 27.7775 21.3994C27.6861 21.333 27.4682 21.0724 27.2934 20.8205C27.1185 20.5685 26.9316 20.3019 26.878 20.2279L26.7806 20.0935L26.8149 20.2595ZM20.0603 27.3668C18.7247 28.0322 17.549 28.6354 17.4475 28.7075C17.3461 28.7795 17.2039 28.9543 17.1315 29.0958L17 29.3532V32.4882V35.6232L17.1694 35.9119L17.3389 36.2006L19.8653 37.4619L22.3917 38.7233H22.7209H23.0501L25.5286 37.4779L28.0071 36.2326L28.2084 35.9774L28.4096 35.7222V32.4858V29.2493L28.2362 28.9877L28.0628 28.7261L25.5511 27.4725C23.8956 26.6463 22.9456 26.2085 22.7641 26.1881L22.4886 26.1571L20.0603 27.3668ZM21.6578 29.1213L20.6941 29.6076L21.7071 30.1141L22.72 30.6206L23.6853 30.1401C24.2163 29.8758 24.6507 29.6395 24.6507 29.6149C24.6507 29.5565 22.8099 28.6269 22.7033 28.6314C22.6584 28.6334 22.1879 28.8538 21.6578 29.1213ZM19.262 33.0443V34.6047L20.3922 35.1696C21.0138 35.4803 21.5377 35.7345 21.5564 35.7345C21.5751 35.7345 21.5904 35.0324 21.5904 34.1741V32.6137L20.4602 32.0488C19.8386 31.7381 19.3146 31.4839 19.296 31.4839C19.2773 31.4839 19.262 32.186 19.262 33.0443ZM24.9667 32.0523L23.8524 32.6138V34.1741C23.8524 35.0324 23.8671 35.7345 23.8851 35.7345C23.9032 35.7345 24.4121 35.4884 25.0161 35.1875L26.1143 34.6405V33.0622C26.1143 32.1941 26.1068 31.4855 26.0977 31.4874C26.0886 31.4893 25.5797 31.7436 24.9667 32.0523ZM36.9808 34.3733C36.7957 34.4845 36.6551 34.6404 36.5567 34.8432L36.4095 35.1467L36.4519 35.456C36.5017 35.8186 36.7613 36.1782 37.0962 36.3487L37.3243 36.4649L42.0312 36.465L46.738 36.4651V40.4501V44.4351H46.5884C46.4917 44.435 46.3391 44.3195 46.1573 44.1088C45.636 43.5045 44.7666 43.2087 43.9868 43.3704C43.5402 43.4629 42.8998 43.8679 42.6721 44.2017L42.5135 44.4341L40.0353 44.4346L37.5572 44.4351V41.4387V38.4424L37.4206 38.1998C37.3454 38.0664 37.1756 37.883 37.043 37.7923L36.8021 37.6274L34.2358 37.609L31.6694 37.5907L31.3701 37.7418L31.0707 37.893L29.9517 39.5535C29.3362 40.4667 28.7452 41.3633 28.6384 41.5459L28.4441 41.878L28.4436 43.8705L28.443 45.863L28.5594 46.0907C28.6233 46.216 28.7906 46.4103 28.9312 46.5224L29.1867 46.7264L30.1287 46.7499L31.0707 46.7734L31.2544 47.0341C31.3554 47.1775 31.58 47.3848 31.7533 47.4948C32.7386 48.1198 33.941 47.9623 34.6893 47.1104L34.9958 46.7613L38.7547 46.763L42.5135 46.7647L42.6972 47.0297C42.7983 47.1755 43.0228 47.3848 43.1962 47.4948C44.1814 48.1198 45.3838 47.9623 46.1321 47.1104L46.4387 46.7613L47.2659 46.7605L48.0932 46.7596L48.3812 46.6204C48.5732 46.5276 48.7244 46.3873 48.8346 46.1995L49 45.9177V40.4375V34.9572L48.8503 34.7376C48.768 34.6169 48.6161 34.4555 48.5128 34.3791L48.325 34.2402L42.7914 34.2236L37.2578 34.2069L36.9808 34.3733ZM31.5796 41.2321L30.7048 42.5454V43.4903V44.4351L30.8877 44.4346L31.0707 44.4341L31.2292 44.2017C31.4569 43.8679 32.0974 43.4629 32.5439 43.3704C33.3238 43.2087 34.1932 43.5045 34.7145 44.1088C34.8962 44.3195 35.0489 44.435 35.1455 44.4351H35.2952V42.1769V39.9187H33.8748H32.4545L31.5796 41.2321Z" fill="white" stroke="#1A4174" stroke-width="0.8" mask="url(#path-2-inside-1_15_1266)"/>
<mask id="path-3-inside-2_15_1266" fill="white">
<path d="M25 63H41V73H25V63Z"/>
</mask>
<g clip-path="url(#paint1_diamond_15_1266_clip_path)" data-figma-skip-parse="true" mask="url(#path-3-inside-2_15_1266)"><g transform="matrix(0.008 0 0 0.01 33 63)"><rect x="0" y="0" width="1125" height="1100" fill="url(#paint1_diamond_15_1266)" opacity="1" shape-rendering="crispEdges"/><rect x="0" y="0" width="1125" height="1100" transform="scale(1 -1)" fill="url(#paint1_diamond_15_1266)" opacity="1" shape-rendering="crispEdges"/><rect x="0" y="0" width="1125" height="1100" transform="scale(-1 1)" fill="url(#paint1_diamond_15_1266)" opacity="1" shape-rendering="crispEdges"/><rect x="0" y="0" width="1125" height="1100" transform="scale(-1)" fill="url(#paint1_diamond_15_1266)" opacity="1" shape-rendering="crispEdges"/></g></g><path d="M25 63V53H17V63H25ZM41 63H49V53H41V63ZM25 63V73H41V63V53H25V63ZM41 63H33V73H41H49V63H41ZM25 73H33V63H25H17V73H25Z" data-figma-gradient-fill="{&#34;type&#34;:&#34;GRADIENT_DIAMOND&#34;,&#34;stops&#34;:[{&#34;color&#34;:{&#34;r&#34;:0.098039217293262482,&#34;g&#34;:0.40000000596046448,&#34;b&#34;:0.70980393886566162,&#34;a&#34;:1.0},&#34;position&#34;:0.99999988079071045},{&#34;color&#34;:{&#34;r&#34;:0.0,&#34;g&#34;:0.0,&#34;b&#34;:0.0,&#34;a&#34;:0.0},&#34;position&#34;:1.0}],&#34;stopsVar&#34;:[{&#34;color&#34;:{&#34;r&#34;:0.098039217293262482,&#34;g&#34;:0.40000000596046448,&#34;b&#34;:0.70980393886566162,&#34;a&#34;:1.0},&#34;position&#34;:0.99999988079071045},{&#34;color&#34;:{&#34;r&#34;:0.0,&#34;g&#34;:0.0,&#34;b&#34;:0.0,&#34;a&#34;:0.0},&#34;position&#34;:1.0}],&#34;transform&#34;:{&#34;m00&#34;:16.0,&#34;m01&#34;:0.0,&#34;m02&#34;:25.0,&#34;m10&#34;:0.0,&#34;m11&#34;:20.0,&#34;m12&#34;:53.0},&#34;opacity&#34;:1.0,&#34;blendMode&#34;:&#34;NORMAL&#34;,&#34;visible&#34;:true}" mask="url(#path-3-inside-2_15_1266)"/>
<defs>
<clipPath id="paint1_diamond_15_1266_clip_path"><path d="M25 63V53H17V63H25ZM41 63H49V53H41V63ZM25 63V73H41V63V53H25V63ZM41 63H33V73H41H49V63H41ZM25 73H33V63H25H17V73H25Z" mask="url(#path-3-inside-2_15_1266)"/></clipPath><radialGradient id="paint0_radial_15_1266" cx="0" cy="0" r="1" gradientUnits="userSpaceOnUse" gradientTransform="translate(32.5 44.3508) rotate(90) scale(92.4275)">
<stop stop-color="#005FBF"/>
<stop offset="1" stop-color="#072358"/>
</radialGradient>
<linearGradient id="paint1_diamond_15_1266" x1="0" y1="0" x2="500" y2="500" gradientUnits="userSpaceOnUse">
<stop offset="1" stop-color="#1966B5"/>
<stop offset="1" stop-opacity="0"/>
</linearGradient>
</defs>
</svg>
