<svg width="65" height="73" viewBox="0 0 65 73" fill="none" xmlns="http://www.w3.org/2000/svg">
<rect width="65" height="65" rx="32.5" fill="url(#paint0_radial_15_1251)" fill-opacity="0.9"/>
<path d="M34.0264 15.4395C34.1658 15.579 34.2315 15.6821 34.2637 15.791C34.297 15.9042 34.3016 16.0493 34.2686 16.2871C34.2496 16.4235 34.2112 16.5262 34.1533 16.6084C34.0955 16.6904 34.0091 16.7658 33.875 16.833C33.5968 16.9724 33.1439 17.065 32.415 17.1299C26.0822 17.693 21.0906 21.8555 19.4961 27.9102L19.0996 29.4121L19.0928 29.4395V33.4678L19.0996 33.4941L19.4961 34.9971C21.086 41.0338 26.0883 45.2175 32.374 45.7725C36.3253 46.121 40.6893 44.4586 43.5674 41.5146C45.6895 39.3442 46.8609 37.1249 47.4678 34.1289L47.7881 32.5498L47.793 32.5225L47.792 32.4951L47.6797 30.6904C47.5428 28.4843 47.1705 27.026 46.2549 25.1172L45.5742 23.6982L45.3242 23.1777L45.1768 23.7363L45.0176 24.3428C44.9478 24.6078 44.7781 24.8719 44.5674 25.0693C44.3527 25.2705 44.1247 25.375 43.9512 25.375C43.9494 25.3748 43.944 25.3742 43.9346 25.3721C43.922 25.3692 43.9054 25.3642 43.8848 25.3564C43.8428 25.3406 43.791 25.3163 43.7334 25.2832C43.6179 25.2167 43.4901 25.1232 43.3818 25.0215L43.0117 24.6729V20.6289L43.2676 20.2646L43.499 19.9346H47.8906L48.1758 20.1934C48.4749 20.4642 48.526 20.8298 48.3936 21.1504C48.2594 21.4746 47.9336 21.7556 47.4697 21.8135L46.9629 21.877L46.6377 21.917L46.8066 22.1973L47.5332 23.4014C49.7304 27.0445 50.2544 32.2874 48.8389 36.5439C48.0578 38.8925 46.9596 40.7115 45.1865 42.5674L44.8232 42.9395C42.4681 45.2929 39.7447 46.7832 36.6621 47.4102C28.2704 49.1163 19.9022 43.9364 17.6104 35.6123L17.2129 34.1689V28.7373L17.6104 27.2939C19.2549 21.322 24.1468 16.7233 30.165 15.4883C30.8282 15.3522 31.9364 15.2323 32.6182 15.2227L33.792 15.2061L34.0264 15.4395ZM33.4004 22.2451C33.4768 22.2691 33.5818 22.3062 33.7129 22.3545C33.9746 22.4509 34.3315 22.5908 34.7529 22.7607C35.5953 23.1005 36.6903 23.5592 37.7871 24.0293C38.884 24.4994 39.9822 24.9806 40.8301 25.3652C41.254 25.5576 41.6148 25.7246 41.8809 25.8545C42.0141 25.9195 42.1222 25.9744 42.2021 26.0176C42.2421 26.0392 42.2735 26.0571 42.2969 26.0713C42.3226 26.0869 42.331 26.0936 42.3301 26.0928L42.5859 26.3115V36.5947L42.3301 36.8135C42.3336 36.8105 42.3281 36.8155 42.3037 36.8301C42.2819 36.8431 42.2516 36.8594 42.2129 36.8799C42.1357 36.9209 42.0302 36.9738 41.8994 37.0371C41.6379 37.1638 41.2812 37.3303 40.8604 37.5215C40.0189 37.9038 38.9243 38.3857 37.8301 38.8594C36.7359 39.333 35.6429 39.7979 34.8027 40.1436C34.3824 40.3165 34.026 40.4593 33.7656 40.5586C33.6355 40.6082 33.5309 40.6455 33.4551 40.6709C33.4211 40.6822 33.3944 40.6899 33.375 40.6953C33.3591 40.6902 33.3378 40.6841 33.3115 40.6748C33.2429 40.6504 33.1457 40.6135 33.0225 40.5654C32.7763 40.4695 32.4314 40.3304 32.0127 40.1582C31.1756 39.8139 30.0461 39.3392 28.8271 38.8164L24.4658 36.9453L24.2861 36.5488C24.286 36.5485 24.2857 36.5474 24.2852 36.5459C24.2844 36.5438 24.2825 36.5411 24.2812 36.5371C24.2786 36.5288 24.2759 36.5173 24.2725 36.5029C24.2655 36.4738 24.2585 36.4354 24.251 36.3877C24.2359 36.2921 24.2207 36.1661 24.207 36.0127C24.1798 35.7064 24.1571 35.3004 24.1387 34.8262C24.1018 33.8781 24.083 32.6661 24.083 31.4531C24.083 30.2401 24.1018 29.0281 24.1387 28.0801C24.1571 27.6058 24.1797 27.1998 24.207 26.8936C24.2207 26.7402 24.2358 26.6141 24.251 26.5186C24.2585 26.4709 24.2655 26.4324 24.2725 26.4033C24.2759 26.3892 24.2796 26.3784 24.2822 26.3701C24.2835 26.366 24.2843 26.3625 24.2852 26.3604C24.2858 26.3587 24.286 26.3577 24.2861 26.3574L24.4668 25.959L28.7656 24.1025C29.9674 23.5832 31.0879 23.1099 31.9248 22.7656C32.3434 22.5934 32.6903 22.4541 32.9404 22.3574C33.0655 22.3091 33.1648 22.272 33.2363 22.2471C33.27 22.2353 33.296 22.2262 33.3145 22.2207C33.3341 22.2254 33.3625 22.2332 33.4004 22.2451ZM26.4834 28.4092C26.3876 28.4055 26.328 28.462 26.3057 28.4883C26.2825 28.5157 26.2696 28.5431 26.2637 28.5576C26.2509 28.5888 26.2434 28.6229 26.2383 28.6494C26.2273 28.706 26.2185 28.782 26.2109 28.8701C26.1956 29.0491 26.1834 29.3047 26.1748 29.6152C26.1576 30.2375 26.1538 31.0943 26.168 32.0361L26.2197 35.4541L26.2217 35.5918L26.3486 35.6465L29.1777 36.8643C29.9561 37.1993 30.6709 37.5036 31.1953 37.7246C31.4574 37.8351 31.6724 37.9251 31.8242 37.9873C31.9 38.0183 31.9614 38.0426 32.0049 38.0596C32.0262 38.0679 32.045 38.0749 32.0596 38.0801C32.0666 38.0826 32.0749 38.0854 32.083 38.0879C32.0869 38.0891 32.0933 38.0911 32.1006 38.0928C32.1032 38.0934 32.1246 38.0986 32.1514 38.0986C32.263 38.0986 32.3195 38.0197 32.3301 38.0039C32.3464 37.9795 32.3536 37.9568 32.3564 37.9482C32.3629 37.9286 32.3658 37.9103 32.3672 37.9014C32.3705 37.8804 32.3733 37.8555 32.375 37.8311C32.3785 37.7802 32.3805 37.7083 32.3828 37.6201C32.3874 37.4427 32.3908 37.1876 32.3916 36.875C32.3932 36.2491 32.3872 35.3865 32.373 34.4385L32.3213 30.9941L32.3193 30.8564L32.1924 30.8027L29.4492 29.6172C28.6942 29.291 27.9909 28.9938 27.4658 28.7773C27.2034 28.6692 26.984 28.5802 26.8252 28.5186C26.7461 28.4879 26.6802 28.4636 26.6309 28.4463C26.6065 28.4377 26.5844 28.4295 26.5654 28.4238L26.4834 28.4092ZM40.5127 28.4033L40.2764 28.4209H40.2754C40.2458 28.4232 40.2164 28.4306 40.1982 28.4355C40.176 28.4416 40.1506 28.4499 40.123 28.459C40.0676 28.4773 39.996 28.5027 39.9121 28.5342C39.7438 28.5974 39.5173 28.6868 39.25 28.7959C38.7148 29.0143 38.0097 29.3129 37.2646 29.6387L34.5596 30.8213L34.4346 30.877L34.4326 31.0137L34.3945 34.4512C34.3819 35.581 34.3881 36.4388 34.4141 37.0098C34.427 37.2937 34.4454 37.5147 34.4697 37.6641C34.4814 37.7356 34.4964 37.807 34.5205 37.8633C34.5316 37.8892 34.5544 37.935 34.5977 37.9727C34.6394 38.0089 34.6997 38.0354 34.7666 38.0312L34.8359 38.0156C34.946 37.9733 36.2931 37.403 37.8232 36.751L40.6113 35.5625L40.7412 35.5078V28.3867L40.5127 28.4033ZM33.3184 24.3086C33.2984 24.3117 33.2777 24.3163 33.2588 24.3213C33.2204 24.3313 33.173 24.3463 33.1201 24.3643C33.0136 24.4005 32.8713 24.4545 32.7041 24.5205C32.3687 24.6529 31.9253 24.8391 31.4551 25.0469C30.5186 25.4608 29.371 25.9668 28.9053 26.1719L28.0586 26.5449L27.6123 26.7422L28.0596 26.9346L30.668 28.0596L33.2754 29.1846L33.3594 29.2207L33.4434 29.1855L35.9863 28.1064C36.6873 27.8089 37.3257 27.5268 37.7891 27.3115C38.0202 27.2042 38.2098 27.112 38.3428 27.043C38.4086 27.0088 38.465 26.9785 38.5059 26.9531C38.5253 26.9411 38.547 26.926 38.5664 26.9102C38.5756 26.9026 38.5915 26.8893 38.6064 26.8711C38.6117 26.8646 38.6388 26.8327 38.6514 26.7822L38.6572 26.7256C38.6561 26.6681 38.6329 26.6276 38.623 26.6123C38.6113 26.5941 38.5989 26.5813 38.5918 26.5742C38.5774 26.5599 38.5628 26.5488 38.5547 26.543C38.537 26.5304 38.516 26.5186 38.4971 26.5078C38.4574 26.4852 38.4031 26.4562 38.3379 26.4238C38.2063 26.3584 38.0195 26.2703 37.7969 26.168C37.3511 25.963 36.7537 25.6973 36.1445 25.4316C35.535 25.1658 34.9117 24.899 34.416 24.6934C34.1685 24.5907 33.9513 24.5029 33.7832 24.4375C33.6227 24.3751 33.4897 24.3262 33.4209 24.3105H33.4199C33.3724 24.2999 33.3293 24.3069 33.3184 24.3086Z" fill="white" stroke="#1A4174" stroke-width="0.425"/>
<mask id="path-3-inside-1_15_1251" fill="white">
<path d="M25 63H41V73H25V63Z"/>
</mask>
<g clip-path="url(#paint1_diamond_15_1251_clip_path)" data-figma-skip-parse="true" mask="url(#path-3-inside-1_15_1251)"><g transform="matrix(0.008 0 0 0.01 33 63)"><rect x="0" y="0" width="1125" height="1100" fill="url(#paint1_diamond_15_1251)" opacity="1" shape-rendering="crispEdges"/><rect x="0" y="0" width="1125" height="1100" transform="scale(1 -1)" fill="url(#paint1_diamond_15_1251)" opacity="1" shape-rendering="crispEdges"/><rect x="0" y="0" width="1125" height="1100" transform="scale(-1 1)" fill="url(#paint1_diamond_15_1251)" opacity="1" shape-rendering="crispEdges"/><rect x="0" y="0" width="1125" height="1100" transform="scale(-1)" fill="url(#paint1_diamond_15_1251)" opacity="1" shape-rendering="crispEdges"/></g></g><path d="M25 63V53H17V63H25ZM41 63H49V53H41V63ZM25 63V73H41V63V53H25V63ZM41 63H33V73H41H49V63H41ZM25 73H33V63H25H17V73H25Z" data-figma-gradient-fill="{&#34;type&#34;:&#34;GRADIENT_DIAMOND&#34;,&#34;stops&#34;:[{&#34;color&#34;:{&#34;r&#34;:0.098039217293262482,&#34;g&#34;:0.40000000596046448,&#34;b&#34;:0.70980393886566162,&#34;a&#34;:1.0},&#34;position&#34;:0.99999988079071045},{&#34;color&#34;:{&#34;r&#34;:0.0,&#34;g&#34;:0.0,&#34;b&#34;:0.0,&#34;a&#34;:0.0},&#34;position&#34;:1.0}],&#34;stopsVar&#34;:[{&#34;color&#34;:{&#34;r&#34;:0.098039217293262482,&#34;g&#34;:0.40000000596046448,&#34;b&#34;:0.70980393886566162,&#34;a&#34;:1.0},&#34;position&#34;:0.99999988079071045},{&#34;color&#34;:{&#34;r&#34;:0.0,&#34;g&#34;:0.0,&#34;b&#34;:0.0,&#34;a&#34;:0.0},&#34;position&#34;:1.0}],&#34;transform&#34;:{&#34;m00&#34;:16.0,&#34;m01&#34;:0.0,&#34;m02&#34;:25.0,&#34;m10&#34;:0.0,&#34;m11&#34;:20.0,&#34;m12&#34;:53.0},&#34;opacity&#34;:1.0,&#34;blendMode&#34;:&#34;NORMAL&#34;,&#34;visible&#34;:true}" mask="url(#path-3-inside-1_15_1251)"/>
<defs>
<clipPath id="paint1_diamond_15_1251_clip_path"><path d="M25 63V53H17V63H25ZM41 63H49V53H41V63ZM25 63V73H41V63V53H25V63ZM41 63H33V73H41H49V63H41ZM25 73H33V63H25H17V73H25Z" mask="url(#path-3-inside-1_15_1251)"/></clipPath><radialGradient id="paint0_radial_15_1251" cx="0" cy="0" r="1" gradientUnits="userSpaceOnUse" gradientTransform="translate(32.5 44.3508) rotate(90) scale(92.4275)">
<stop stop-color="#005FBF"/>
<stop offset="1" stop-color="#072358"/>
</radialGradient>
<linearGradient id="paint1_diamond_15_1251" x1="0" y1="0" x2="500" y2="500" gradientUnits="userSpaceOnUse">
<stop offset="1" stop-color="#1966B5"/>
<stop offset="1" stop-opacity="0"/>
</linearGradient>
</defs>
</svg>
