<svg width="65" height="73" viewBox="0 0 65 73" fill="none" xmlns="http://www.w3.org/2000/svg">
<rect width="65" height="65" rx="32.5" fill="url(#paint0_radial_15_1243)" fill-opacity="0.9"/>
<mask id="path-2-inside-1_15_1243" fill="white">
<path fill-rule="evenodd" clip-rule="evenodd" d="M18.8464 15.0527C18.54 15.145 18.2526 15.3936 18.1236 15.6777L18 15.9499V30.9896V46.0294L18.1226 46.295C18.2644 46.6023 18.4826 46.8207 18.7484 46.9213C18.8586 46.9631 19.4928 46.9922 20.2942 46.9922H21.6531L21.8678 46.9025C22.1585 46.781 22.4958 46.3825 22.5493 46.0972C22.6427 45.599 22.4067 45.0833 21.9819 44.8575L21.7505 44.7346H21.0358H20.3209V33.3136V21.8927H29.4504H38.5799V24.2853V26.6778L38.6704 26.8946C38.7884 27.1768 39.1165 27.4489 39.446 27.5376L39.7086 27.6083L39.9712 27.5376C40.3007 27.4489 40.6289 27.1768 40.7468 26.8946L40.8373 26.6778V21.2951V15.9124L40.7468 15.6956C40.6313 15.4193 40.3052 15.1443 39.9887 15.0564C39.6894 14.9732 19.1218 14.9697 18.8464 15.0527ZM20.3209 18.4399V19.5687H29.4504H38.5799V18.4399V17.3111H29.4504H20.3209V18.4399ZM23.2743 24.2429C22.9931 24.3654 22.6595 24.7677 22.607 25.0477C22.5143 25.5419 22.7563 26.061 23.18 26.2772L23.4362 26.408H29.4711H35.506L35.73 26.257C35.8532 26.174 36.0246 26.0021 36.1109 25.8752L36.2676 25.6444L36.2429 25.2431L36.2183 24.8419L36.0611 24.6212C35.9747 24.4998 35.7815 24.3448 35.6318 24.2768L35.3597 24.1533L29.4172 24.1544L23.4748 24.1555L23.2743 24.2429ZM23.174 28.871C22.7428 29.1212 22.5164 29.6089 22.607 30.0923C22.657 30.3587 22.9698 30.7491 23.2489 30.8934L23.435 30.9896H26.5654H29.6959L29.9255 30.8807C30.0518 30.8208 30.2355 30.6662 30.3339 30.5372L30.5127 30.3028V29.8608V29.4188L30.3339 29.1844C30.2355 29.0554 30.0518 28.9009 29.9255 28.841L29.6959 28.732L26.5521 28.7335L23.4084 28.7351L23.174 28.871ZM33.4355 28.8839C32.6923 29.3048 32.6923 30.4168 33.4355 30.8378L33.6998 30.9874L40.6879 30.9886L47.6761 30.9896V36.6957V42.4017L47.0229 42.4228L46.3697 42.4437L46.1832 42.0453C45.9521 41.5518 45.1967 40.7754 44.706 40.527C43.7198 40.0276 42.6027 40.0272 41.5764 40.526C41.0928 40.7609 40.3993 41.4597 40.1179 41.9955L39.9 42.4105H36.9492H33.9985V37.7266V33.0427L33.8728 32.7964C33.7124 32.482 33.5401 32.3278 33.2228 32.2146L32.9694 32.1243H30.0148H27.0601L26.8068 32.2146C26.6674 32.2643 26.4909 32.3601 26.4146 32.4275C26.1111 32.6954 22.6587 37.3772 22.6194 37.5744C22.5968 37.687 22.5791 39.1274 22.5799 40.7754L22.5813 43.7718L22.7033 44.0374C22.8528 44.3629 23.0233 44.5204 23.3542 44.6383L23.6075 44.7287L24.9111 44.7316L26.2146 44.7346L26.3999 45.1164C26.8006 45.942 27.8195 46.7269 28.7399 46.9188C30.1984 47.223 31.8046 46.4555 32.4382 45.1516L32.6374 44.7417L36.2892 44.7415L39.941 44.7412L40.1323 45.1446C40.2468 45.3862 40.4896 45.7174 40.7377 45.9704L41.1519 46.3929L41.642 46.6251C42.6732 47.1138 43.6549 47.1101 44.6883 46.6134C45.1893 46.3727 45.9344 45.614 46.1749 45.0998L46.3612 44.7014H47.7706H49.1799L49.4624 44.5144C49.6401 44.3968 49.7916 44.2243 49.871 44.0496L49.9971 43.7718L49.9985 36.7146L50 29.6574L49.9086 29.4437C49.798 29.1852 49.5031 28.8987 49.2487 28.8026C49.1205 28.7542 46.6489 28.7323 41.3808 28.7331L33.6998 28.7342L33.4355 28.8839ZM27.0238 35.3555C26.6479 35.8577 26.2672 36.3656 26.1778 36.4843L26.0153 36.7001H28.8781H31.7411V35.5713V34.4425H29.7242H27.7072L27.0238 35.3555ZM24.8359 40.7173V42.4105H25.5239H26.2119L26.4189 41.9902C26.8139 41.1876 27.6868 40.4898 28.59 40.2546C29.5548 40.0033 30.7071 40.2438 31.5253 40.8675L31.7411 41.0319V40.028V39.0241H28.2885H24.8359V40.7173ZM28.9779 42.5339C28.8276 42.6042 28.6232 42.7684 28.5238 42.8989C28.0464 43.5247 28.3798 44.4603 29.1546 44.669L29.4172 44.7397L29.6798 44.669C30.208 44.5267 30.5459 44.0973 30.5459 43.5683C30.5459 42.744 29.7092 42.192 28.9779 42.5339ZM42.646 42.5506C41.7754 42.9817 41.7942 44.1463 42.6787 44.5791L43.0272 44.7496L43.2768 44.7044C43.8305 44.6042 44.287 44.0927 44.287 43.5726C44.287 43.3308 44.0901 42.8839 43.9151 42.7285C43.7371 42.5704 43.334 42.4105 43.1135 42.4106C43.0119 42.4106 42.8015 42.4736 42.646 42.5506Z"/>
</mask>
<path fill-rule="evenodd" clip-rule="evenodd" d="M18.8464 15.0527C18.54 15.145 18.2526 15.3936 18.1236 15.6777L18 15.9499V30.9896V46.0294L18.1226 46.295C18.2644 46.6023 18.4826 46.8207 18.7484 46.9213C18.8586 46.9631 19.4928 46.9922 20.2942 46.9922H21.6531L21.8678 46.9025C22.1585 46.781 22.4958 46.3825 22.5493 46.0972C22.6427 45.599 22.4067 45.0833 21.9819 44.8575L21.7505 44.7346H21.0358H20.3209V33.3136V21.8927H29.4504H38.5799V24.2853V26.6778L38.6704 26.8946C38.7884 27.1768 39.1165 27.4489 39.446 27.5376L39.7086 27.6083L39.9712 27.5376C40.3007 27.4489 40.6289 27.1768 40.7468 26.8946L40.8373 26.6778V21.2951V15.9124L40.7468 15.6956C40.6313 15.4193 40.3052 15.1443 39.9887 15.0564C39.6894 14.9732 19.1218 14.9697 18.8464 15.0527ZM20.3209 18.4399V19.5687H29.4504H38.5799V18.4399V17.3111H29.4504H20.3209V18.4399ZM23.2743 24.2429C22.9931 24.3654 22.6595 24.7677 22.607 25.0477C22.5143 25.5419 22.7563 26.061 23.18 26.2772L23.4362 26.408H29.4711H35.506L35.73 26.257C35.8532 26.174 36.0246 26.0021 36.1109 25.8752L36.2676 25.6444L36.2429 25.2431L36.2183 24.8419L36.0611 24.6212C35.9747 24.4998 35.7815 24.3448 35.6318 24.2768L35.3597 24.1533L29.4172 24.1544L23.4748 24.1555L23.2743 24.2429ZM23.174 28.871C22.7428 29.1212 22.5164 29.6089 22.607 30.0923C22.657 30.3587 22.9698 30.7491 23.2489 30.8934L23.435 30.9896H26.5654H29.6959L29.9255 30.8807C30.0518 30.8208 30.2355 30.6662 30.3339 30.5372L30.5127 30.3028V29.8608V29.4188L30.3339 29.1844C30.2355 29.0554 30.0518 28.9009 29.9255 28.841L29.6959 28.732L26.5521 28.7335L23.4084 28.7351L23.174 28.871ZM33.4355 28.8839C32.6923 29.3048 32.6923 30.4168 33.4355 30.8378L33.6998 30.9874L40.6879 30.9886L47.6761 30.9896V36.6957V42.4017L47.0229 42.4228L46.3697 42.4437L46.1832 42.0453C45.9521 41.5518 45.1967 40.7754 44.706 40.527C43.7198 40.0276 42.6027 40.0272 41.5764 40.526C41.0928 40.7609 40.3993 41.4597 40.1179 41.9955L39.9 42.4105H36.9492H33.9985V37.7266V33.0427L33.8728 32.7964C33.7124 32.482 33.5401 32.3278 33.2228 32.2146L32.9694 32.1243H30.0148H27.0601L26.8068 32.2146C26.6674 32.2643 26.4909 32.3601 26.4146 32.4275C26.1111 32.6954 22.6587 37.3772 22.6194 37.5744C22.5968 37.687 22.5791 39.1274 22.5799 40.7754L22.5813 43.7718L22.7033 44.0374C22.8528 44.3629 23.0233 44.5204 23.3542 44.6383L23.6075 44.7287L24.9111 44.7316L26.2146 44.7346L26.3999 45.1164C26.8006 45.942 27.8195 46.7269 28.7399 46.9188C30.1984 47.223 31.8046 46.4555 32.4382 45.1516L32.6374 44.7417L36.2892 44.7415L39.941 44.7412L40.1323 45.1446C40.2468 45.3862 40.4896 45.7174 40.7377 45.9704L41.1519 46.3929L41.642 46.6251C42.6732 47.1138 43.6549 47.1101 44.6883 46.6134C45.1893 46.3727 45.9344 45.614 46.1749 45.0998L46.3612 44.7014H47.7706H49.1799L49.4624 44.5144C49.6401 44.3968 49.7916 44.2243 49.871 44.0496L49.9971 43.7718L49.9985 36.7146L50 29.6574L49.9086 29.4437C49.798 29.1852 49.5031 28.8987 49.2487 28.8026C49.1205 28.7542 46.6489 28.7323 41.3808 28.7331L33.6998 28.7342L33.4355 28.8839ZM27.0238 35.3555C26.6479 35.8577 26.2672 36.3656 26.1778 36.4843L26.0153 36.7001H28.8781H31.7411V35.5713V34.4425H29.7242H27.7072L27.0238 35.3555ZM24.8359 40.7173V42.4105H25.5239H26.2119L26.4189 41.9902C26.8139 41.1876 27.6868 40.4898 28.59 40.2546C29.5548 40.0033 30.7071 40.2438 31.5253 40.8675L31.7411 41.0319V40.028V39.0241H28.2885H24.8359V40.7173ZM28.9779 42.5339C28.8276 42.6042 28.6232 42.7684 28.5238 42.8989C28.0464 43.5247 28.3798 44.4603 29.1546 44.669L29.4172 44.7397L29.6798 44.669C30.208 44.5267 30.5459 44.0973 30.5459 43.5683C30.5459 42.744 29.7092 42.192 28.9779 42.5339ZM42.646 42.5506C41.7754 42.9817 41.7942 44.1463 42.6787 44.5791L43.0272 44.7496L43.2768 44.7044C43.8305 44.6042 44.287 44.0927 44.287 43.5726C44.287 43.3308 44.0901 42.8839 43.9151 42.7285C43.7371 42.5704 43.334 42.4105 43.1135 42.4106C43.0119 42.4106 42.8015 42.4736 42.646 42.5506Z" fill="white" stroke="#1A4174" stroke-width="0.85" mask="url(#path-2-inside-1_15_1243)"/>
<mask id="path-3-inside-2_15_1243" fill="white">
<path d="M25 63H41V73H25V63Z"/>
</mask>
<g clip-path="url(#paint1_diamond_15_1243_clip_path)" data-figma-skip-parse="true" mask="url(#path-3-inside-2_15_1243)"><g transform="matrix(0.008 0 0 0.01 33 63)"><rect x="0" y="0" width="1125" height="1100" fill="url(#paint1_diamond_15_1243)" opacity="1" shape-rendering="crispEdges"/><rect x="0" y="0" width="1125" height="1100" transform="scale(1 -1)" fill="url(#paint1_diamond_15_1243)" opacity="1" shape-rendering="crispEdges"/><rect x="0" y="0" width="1125" height="1100" transform="scale(-1 1)" fill="url(#paint1_diamond_15_1243)" opacity="1" shape-rendering="crispEdges"/><rect x="0" y="0" width="1125" height="1100" transform="scale(-1)" fill="url(#paint1_diamond_15_1243)" opacity="1" shape-rendering="crispEdges"/></g></g><path d="M25 63V53H17V63H25ZM41 63H49V53H41V63ZM25 63V73H41V63V53H25V63ZM41 63H33V73H41H49V63H41ZM25 73H33V63H25H17V73H25Z" data-figma-gradient-fill="{&#34;type&#34;:&#34;GRADIENT_DIAMOND&#34;,&#34;stops&#34;:[{&#34;color&#34;:{&#34;r&#34;:0.098039217293262482,&#34;g&#34;:0.40000000596046448,&#34;b&#34;:0.70980393886566162,&#34;a&#34;:1.0},&#34;position&#34;:0.99999988079071045},{&#34;color&#34;:{&#34;r&#34;:0.0,&#34;g&#34;:0.0,&#34;b&#34;:0.0,&#34;a&#34;:0.0},&#34;position&#34;:1.0}],&#34;stopsVar&#34;:[{&#34;color&#34;:{&#34;r&#34;:0.098039217293262482,&#34;g&#34;:0.40000000596046448,&#34;b&#34;:0.70980393886566162,&#34;a&#34;:1.0},&#34;position&#34;:0.99999988079071045},{&#34;color&#34;:{&#34;r&#34;:0.0,&#34;g&#34;:0.0,&#34;b&#34;:0.0,&#34;a&#34;:0.0},&#34;position&#34;:1.0}],&#34;transform&#34;:{&#34;m00&#34;:16.0,&#34;m01&#34;:0.0,&#34;m02&#34;:25.0,&#34;m10&#34;:0.0,&#34;m11&#34;:20.0,&#34;m12&#34;:53.0},&#34;opacity&#34;:1.0,&#34;blendMode&#34;:&#34;NORMAL&#34;,&#34;visible&#34;:true}" mask="url(#path-3-inside-2_15_1243)"/>
<defs>
<clipPath id="paint1_diamond_15_1243_clip_path"><path d="M25 63V53H17V63H25ZM41 63H49V53H41V63ZM25 63V73H41V63V53H25V63ZM41 63H33V73H41H49V63H41ZM25 73H33V63H25H17V73H25Z" mask="url(#path-3-inside-2_15_1243)"/></clipPath><radialGradient id="paint0_radial_15_1243" cx="0" cy="0" r="1" gradientUnits="userSpaceOnUse" gradientTransform="translate(32.5 44.3508) rotate(90) scale(92.4275)">
<stop stop-color="#005FBF"/>
<stop offset="1" stop-color="#072358"/>
</radialGradient>
<linearGradient id="paint1_diamond_15_1243" x1="0" y1="0" x2="500" y2="500" gradientUnits="userSpaceOnUse">
<stop offset="1" stop-color="#1966B5"/>
<stop offset="1" stop-opacity="0"/>
</linearGradient>
</defs>
</svg>
