<svg width="65" height="73" viewBox="0 0 65 73" fill="none" xmlns="http://www.w3.org/2000/svg">
<rect width="65" height="65" rx="32.5" fill="url(#paint0_radial_15_1259)" fill-opacity="0.9"/>
<mask id="path-2-inside-1_15_1259" fill="white">
<path fill-rule="evenodd" clip-rule="evenodd" d="M31.948 15.9075C27.407 16.225 23.358 18.3492 20.4815 21.9229C17.9928 25.0149 16.7081 29.2495 17.0562 33.213C17.6616 40.105 22.5588 45.7993 29.2895 47.4374C34.2055 48.6339 39.5282 47.3403 43.4214 44.0028C46.2388 41.5875 48.128 38.2612 48.7651 34.5939C49.3134 31.4375 48.8973 28.1962 47.5655 25.2493C47.1715 24.3776 46.9806 24.1092 46.6585 23.9746C45.9515 23.6792 45.1719 24.1298 45.0672 24.8944L45.0252 25.2004L45.3982 26.0037C46.7062 28.8202 47.0424 31.8707 46.3788 34.9001C45.5326 38.7632 42.7991 42.2723 39.2139 44.0978C37.2529 45.0965 35.261 45.5688 33.0115 45.5688C31.6949 45.5688 30.9438 45.4802 29.6907 45.177C24.8233 43.9991 20.8807 40.0503 19.691 35.1618C19.1862 33.0871 19.1751 30.7898 19.6599 28.7162C20.6857 24.3288 23.8962 20.6788 28.1596 19.0528C29.608 18.5004 30.8806 18.2476 32.5162 18.1875C34.5504 18.1129 36.1481 18.3924 38.1292 19.1695C38.9253 19.4818 40.5239 20.3305 40.5663 20.4634C40.5775 20.4983 40.4801 20.5961 40.3499 20.6804C40.0889 20.8496 39.8602 21.2747 39.8602 21.5906C39.8602 21.8688 40.0716 22.3048 40.2896 22.4763C40.6023 22.7223 40.9267 22.7649 42.3135 22.7422L43.6227 22.7206L43.9053 22.5334C44.0829 22.4158 44.2348 22.2429 44.3142 22.0681L44.4404 21.79L44.4419 20.4418L44.4433 19.0936L44.3518 18.8797C44.1722 18.4599 43.732 18.1672 43.2802 18.1672C42.9525 18.1672 42.7217 18.2747 42.4649 18.547L42.2372 18.7885L42.0608 18.6754C40.2256 17.4987 38.7194 16.8237 36.9074 16.3658C35.3282 15.9668 33.507 15.7985 31.948 15.9075ZM25.8301 21.6443C25.4989 21.7555 25.3387 21.8858 25.1587 22.1905L25.0025 22.4547L24.9821 24.2994L24.9616 26.144H24.3319C23.4229 26.144 22.9261 26.3975 22.7759 26.9379C22.7398 27.0679 22.7101 27.9711 22.7099 28.9451L22.7095 30.7158L22.4755 30.7598C22.1899 30.8133 21.791 31.151 21.6694 31.442L21.5796 31.657V34.1959V36.7348L21.7486 37.0233C21.853 37.2014 22.0173 37.3626 22.178 37.4446L22.4383 37.5774H23.7392H25.0399L25.0774 37.6937C25.2635 38.2717 25.4337 38.5733 25.7868 38.9508C26.2453 39.441 26.7665 39.7216 27.4341 39.8377L27.8718 39.9138L28.2982 39.8365C29.3496 39.6458 30.1701 38.9636 30.5351 37.9762L30.6704 37.6106L32.9984 37.5932L35.3265 37.5757L35.4374 37.9098C35.6789 38.6368 36.303 39.3226 37.0053 39.6326C37.1665 39.7037 37.4959 39.7961 37.7374 39.8381L38.1764 39.9143L38.5658 39.8423C39.4991 39.6697 40.2859 39.0944 40.688 38.2907C40.816 38.0348 40.9207 37.7696 40.9207 37.7014V37.5774H42.2189H43.5171L43.731 37.4859C43.9896 37.3752 44.2764 37.0799 44.3726 36.8253C44.4189 36.7029 44.4433 35.5798 44.4433 33.5826V30.527L44.3525 30.3096C44.2998 30.1834 43.4578 29.2916 42.3456 28.1841L40.4296 26.2761L40.1933 26.2104C40.0631 26.1742 39.1213 26.1453 38.096 26.1459L36.235 26.1469L35.9691 26.269C35.6529 26.4143 35.5112 26.5625 35.3735 26.8921L35.2713 27.1368V28.9337V30.7306H34.7063H34.1414L34.1412 28.886L34.1412 27.0414L34.0249 26.8134C33.961 26.6881 33.794 26.4938 33.6537 26.3816L33.3986 26.1778L32.6439 26.1538L31.8891 26.1299L31.8687 24.254L31.8483 22.3782L31.6715 22.1111C31.5742 21.9642 31.3798 21.787 31.2395 21.7173L30.9843 21.5906L28.5251 21.5779L26.066 21.5652L25.8301 21.6443ZM27.2955 25.0139V26.144H28.4254H29.5553V25.0139V23.8839H28.4254H27.2955V25.0139ZM24.9693 29.6006V30.7306H26.1324H27.2955V29.6006V28.4706H26.1324H24.9693V29.6006ZM29.5553 29.6006V30.7306H30.7185H31.8816V29.6006V28.4706H30.7185H29.5553V29.6006ZM37.5975 29.6006V30.7306H39.6405H41.6836L40.5552 29.6006L39.4267 28.4706H38.5121H37.5975V29.6006ZM23.8837 33.0351C23.8593 33.0594 23.8394 33.5829 23.8394 34.1984V35.3173H24.6907H25.5422L25.8937 34.9784C26.0881 34.791 26.4431 34.5457 26.6873 34.43L27.1294 34.2205H27.8605H28.5916L29.0337 34.43C29.2779 34.5457 29.6329 34.791 29.8272 34.9784L30.1788 35.3173H33.0011H35.8234L36.1782 34.9817C36.3733 34.7971 36.7328 34.5526 36.9771 34.4383L37.4212 34.2304L37.9349 34.2007C38.8268 34.149 39.5234 34.402 40.1397 35.0016L40.4643 35.3173H41.2877H42.111L42.1306 34.1815C42.1415 33.5569 42.1379 33.0334 42.1226 33.0183C42.1074 33.0031 41.0865 32.9907 39.8541 32.9907H37.6133L37.5384 33.2882C37.4424 33.6697 37.1094 34.0062 36.7202 34.1152L36.4233 34.1984L36.1459 34.1236C35.7751 34.0238 35.4254 33.6655 35.3303 33.2882L35.2555 32.9907H29.5918C26.4767 32.9907 23.9081 33.0107 23.8837 33.0351ZM27.5856 36.5251C27.2752 36.6754 27.2058 37.1613 27.4587 37.4142C27.8175 37.773 28.4254 37.499 28.4254 36.9784C28.4254 36.786 28.0749 36.4462 27.8822 36.4519C27.7972 36.4543 27.6637 36.4873 27.5856 36.5251ZM37.8843 36.5143C37.383 36.7163 37.583 37.5774 38.1313 37.5774C38.3959 37.5774 38.7274 37.2632 38.7274 37.0124C38.7274 36.7894 38.3947 36.4458 38.1842 36.4515C38.0991 36.4539 37.9642 36.4821 37.8843 36.5143Z"/>
</mask>
<path fill-rule="evenodd" clip-rule="evenodd" d="M31.948 15.9075C27.407 16.225 23.358 18.3492 20.4815 21.9229C17.9928 25.0149 16.7081 29.2495 17.0562 33.213C17.6616 40.105 22.5588 45.7993 29.2895 47.4374C34.2055 48.6339 39.5282 47.3403 43.4214 44.0028C46.2388 41.5875 48.128 38.2612 48.7651 34.5939C49.3134 31.4375 48.8973 28.1962 47.5655 25.2493C47.1715 24.3776 46.9806 24.1092 46.6585 23.9746C45.9515 23.6792 45.1719 24.1298 45.0672 24.8944L45.0252 25.2004L45.3982 26.0037C46.7062 28.8202 47.0424 31.8707 46.3788 34.9001C45.5326 38.7632 42.7991 42.2723 39.2139 44.0978C37.2529 45.0965 35.261 45.5688 33.0115 45.5688C31.6949 45.5688 30.9438 45.4802 29.6907 45.177C24.8233 43.9991 20.8807 40.0503 19.691 35.1618C19.1862 33.0871 19.1751 30.7898 19.6599 28.7162C20.6857 24.3288 23.8962 20.6788 28.1596 19.0528C29.608 18.5004 30.8806 18.2476 32.5162 18.1875C34.5504 18.1129 36.1481 18.3924 38.1292 19.1695C38.9253 19.4818 40.5239 20.3305 40.5663 20.4634C40.5775 20.4983 40.4801 20.5961 40.3499 20.6804C40.0889 20.8496 39.8602 21.2747 39.8602 21.5906C39.8602 21.8688 40.0716 22.3048 40.2896 22.4763C40.6023 22.7223 40.9267 22.7649 42.3135 22.7422L43.6227 22.7206L43.9053 22.5334C44.0829 22.4158 44.2348 22.2429 44.3142 22.0681L44.4404 21.79L44.4419 20.4418L44.4433 19.0936L44.3518 18.8797C44.1722 18.4599 43.732 18.1672 43.2802 18.1672C42.9525 18.1672 42.7217 18.2747 42.4649 18.547L42.2372 18.7885L42.0608 18.6754C40.2256 17.4987 38.7194 16.8237 36.9074 16.3658C35.3282 15.9668 33.507 15.7985 31.948 15.9075ZM25.8301 21.6443C25.4989 21.7555 25.3387 21.8858 25.1587 22.1905L25.0025 22.4547L24.9821 24.2994L24.9616 26.144H24.3319C23.4229 26.144 22.9261 26.3975 22.7759 26.9379C22.7398 27.0679 22.7101 27.9711 22.7099 28.9451L22.7095 30.7158L22.4755 30.7598C22.1899 30.8133 21.791 31.151 21.6694 31.442L21.5796 31.657V34.1959V36.7348L21.7486 37.0233C21.853 37.2014 22.0173 37.3626 22.178 37.4446L22.4383 37.5774H23.7392H25.0399L25.0774 37.6937C25.2635 38.2717 25.4337 38.5733 25.7868 38.9508C26.2453 39.441 26.7665 39.7216 27.4341 39.8377L27.8718 39.9138L28.2982 39.8365C29.3496 39.6458 30.1701 38.9636 30.5351 37.9762L30.6704 37.6106L32.9984 37.5932L35.3265 37.5757L35.4374 37.9098C35.6789 38.6368 36.303 39.3226 37.0053 39.6326C37.1665 39.7037 37.4959 39.7961 37.7374 39.8381L38.1764 39.9143L38.5658 39.8423C39.4991 39.6697 40.2859 39.0944 40.688 38.2907C40.816 38.0348 40.9207 37.7696 40.9207 37.7014V37.5774H42.2189H43.5171L43.731 37.4859C43.9896 37.3752 44.2764 37.0799 44.3726 36.8253C44.4189 36.7029 44.4433 35.5798 44.4433 33.5826V30.527L44.3525 30.3096C44.2998 30.1834 43.4578 29.2916 42.3456 28.1841L40.4296 26.2761L40.1933 26.2104C40.0631 26.1742 39.1213 26.1453 38.096 26.1459L36.235 26.1469L35.9691 26.269C35.6529 26.4143 35.5112 26.5625 35.3735 26.8921L35.2713 27.1368V28.9337V30.7306H34.7063H34.1414L34.1412 28.886L34.1412 27.0414L34.0249 26.8134C33.961 26.6881 33.794 26.4938 33.6537 26.3816L33.3986 26.1778L32.6439 26.1538L31.8891 26.1299L31.8687 24.254L31.8483 22.3782L31.6715 22.1111C31.5742 21.9642 31.3798 21.787 31.2395 21.7173L30.9843 21.5906L28.5251 21.5779L26.066 21.5652L25.8301 21.6443ZM27.2955 25.0139V26.144H28.4254H29.5553V25.0139V23.8839H28.4254H27.2955V25.0139ZM24.9693 29.6006V30.7306H26.1324H27.2955V29.6006V28.4706H26.1324H24.9693V29.6006ZM29.5553 29.6006V30.7306H30.7185H31.8816V29.6006V28.4706H30.7185H29.5553V29.6006ZM37.5975 29.6006V30.7306H39.6405H41.6836L40.5552 29.6006L39.4267 28.4706H38.5121H37.5975V29.6006ZM23.8837 33.0351C23.8593 33.0594 23.8394 33.5829 23.8394 34.1984V35.3173H24.6907H25.5422L25.8937 34.9784C26.0881 34.791 26.4431 34.5457 26.6873 34.43L27.1294 34.2205H27.8605H28.5916L29.0337 34.43C29.2779 34.5457 29.6329 34.791 29.8272 34.9784L30.1788 35.3173H33.0011H35.8234L36.1782 34.9817C36.3733 34.7971 36.7328 34.5526 36.9771 34.4383L37.4212 34.2304L37.9349 34.2007C38.8268 34.149 39.5234 34.402 40.1397 35.0016L40.4643 35.3173H41.2877H42.111L42.1306 34.1815C42.1415 33.5569 42.1379 33.0334 42.1226 33.0183C42.1074 33.0031 41.0865 32.9907 39.8541 32.9907H37.6133L37.5384 33.2882C37.4424 33.6697 37.1094 34.0062 36.7202 34.1152L36.4233 34.1984L36.1459 34.1236C35.7751 34.0238 35.4254 33.6655 35.3303 33.2882L35.2555 32.9907H29.5918C26.4767 32.9907 23.9081 33.0107 23.8837 33.0351ZM27.5856 36.5251C27.2752 36.6754 27.2058 37.1613 27.4587 37.4142C27.8175 37.773 28.4254 37.499 28.4254 36.9784C28.4254 36.786 28.0749 36.4462 27.8822 36.4519C27.7972 36.4543 27.6637 36.4873 27.5856 36.5251ZM37.8843 36.5143C37.383 36.7163 37.583 37.5774 38.1313 37.5774C38.3959 37.5774 38.7274 37.2632 38.7274 37.0124C38.7274 36.7894 38.3947 36.4458 38.1842 36.4515C38.0991 36.4539 37.9642 36.4821 37.8843 36.5143Z" fill="white" stroke="#1A4174" stroke-width="0.8" mask="url(#path-2-inside-1_15_1259)"/>
<mask id="path-3-inside-2_15_1259" fill="white">
<path d="M25 63H41V73H25V63Z"/>
</mask>
<g clip-path="url(#paint1_diamond_15_1259_clip_path)" data-figma-skip-parse="true" mask="url(#path-3-inside-2_15_1259)"><g transform="matrix(0.008 0 0 0.01 33 63)"><rect x="0" y="0" width="1125" height="1100" fill="url(#paint1_diamond_15_1259)" opacity="1" shape-rendering="crispEdges"/><rect x="0" y="0" width="1125" height="1100" transform="scale(1 -1)" fill="url(#paint1_diamond_15_1259)" opacity="1" shape-rendering="crispEdges"/><rect x="0" y="0" width="1125" height="1100" transform="scale(-1 1)" fill="url(#paint1_diamond_15_1259)" opacity="1" shape-rendering="crispEdges"/><rect x="0" y="0" width="1125" height="1100" transform="scale(-1)" fill="url(#paint1_diamond_15_1259)" opacity="1" shape-rendering="crispEdges"/></g></g><path d="M25 63V53H17V63H25ZM41 63H49V53H41V63ZM25 63V73H41V63V53H25V63ZM41 63H33V73H41H49V63H41ZM25 73H33V63H25H17V73H25Z" data-figma-gradient-fill="{&#34;type&#34;:&#34;GRADIENT_DIAMOND&#34;,&#34;stops&#34;:[{&#34;color&#34;:{&#34;r&#34;:0.098039217293262482,&#34;g&#34;:0.40000000596046448,&#34;b&#34;:0.70980393886566162,&#34;a&#34;:1.0},&#34;position&#34;:0.99999988079071045},{&#34;color&#34;:{&#34;r&#34;:0.0,&#34;g&#34;:0.0,&#34;b&#34;:0.0,&#34;a&#34;:0.0},&#34;position&#34;:1.0}],&#34;stopsVar&#34;:[{&#34;color&#34;:{&#34;r&#34;:0.098039217293262482,&#34;g&#34;:0.40000000596046448,&#34;b&#34;:0.70980393886566162,&#34;a&#34;:1.0},&#34;position&#34;:0.99999988079071045},{&#34;color&#34;:{&#34;r&#34;:0.0,&#34;g&#34;:0.0,&#34;b&#34;:0.0,&#34;a&#34;:0.0},&#34;position&#34;:1.0}],&#34;transform&#34;:{&#34;m00&#34;:16.0,&#34;m01&#34;:0.0,&#34;m02&#34;:25.0,&#34;m10&#34;:0.0,&#34;m11&#34;:20.0,&#34;m12&#34;:53.0},&#34;opacity&#34;:1.0,&#34;blendMode&#34;:&#34;NORMAL&#34;,&#34;visible&#34;:true}" mask="url(#path-3-inside-2_15_1259)"/>
<defs>
<clipPath id="paint1_diamond_15_1259_clip_path"><path d="M25 63V53H17V63H25ZM41 63H49V53H41V63ZM25 63V73H41V63V53H25V63ZM41 63H33V73H41H49V63H41ZM25 73H33V63H25H17V73H25Z" mask="url(#path-3-inside-2_15_1259)"/></clipPath><radialGradient id="paint0_radial_15_1259" cx="0" cy="0" r="1" gradientUnits="userSpaceOnUse" gradientTransform="translate(32.5 44.3508) rotate(90) scale(92.4275)">
<stop stop-color="#005FBF"/>
<stop offset="1" stop-color="#072358"/>
</radialGradient>
<linearGradient id="paint1_diamond_15_1259" x1="0" y1="0" x2="500" y2="500" gradientUnits="userSpaceOnUse">
<stop offset="1" stop-color="#1966B5"/>
<stop offset="1" stop-opacity="0"/>
</linearGradient>
</defs>
</svg>
