<svg width="166" height="30" viewBox="0 0 166 30" fill="none" xmlns="http://www.w3.org/2000/svg">
<path d="M40.0118 1.27465H44.1563V23.0637H50.9758V26.6953H40.0118V1.27465Z" fill="#726BEA"/>
<path d="M58.8067 27.0584C56.7722 27.0584 55.2149 26.5016 54.1348 25.3879C53.0547 24.2742 52.5147 22.7006 52.5147 20.6669V7.30297C52.5147 5.26932 53.0547 3.69566 54.1348 2.582C55.2149 1.46833 56.7722 0.911499 58.8067 0.911499C60.8413 0.911499 62.3986 1.46833 63.4787 2.582C64.5588 3.69566 65.0988 5.26932 65.0988 7.30297V20.6669C65.0988 22.7006 64.5588 24.2742 63.4787 25.3879C62.3986 26.5016 60.8413 27.0584 58.8067 27.0584ZM58.8067 23.4269C60.2385 23.4269 60.9544 22.5916 60.9544 20.9211V7.04876C60.9544 5.37826 60.2385 4.54301 58.8067 4.54301C57.375 4.54301 56.6591 5.37826 56.6591 7.04876V20.9211C56.6591 22.5916 57.375 23.4269 58.8067 23.4269Z" fill="#726BEA"/>
<path d="M73.7792 27.0584C71.7698 27.0584 70.2376 26.5137 69.1826 25.4242C68.1276 24.3106 67.6002 22.7248 67.6002 20.6669V7.30297C67.6002 5.24511 68.1276 3.67145 69.1826 2.582C70.2376 1.46833 71.7698 0.911499 73.7792 0.911499C75.7887 0.911499 77.3208 1.46833 78.3758 2.582C79.4308 3.67145 79.9583 5.24511 79.9583 7.30297V9.48187H76.0398V7.04876C76.0398 5.37826 75.324 4.54301 73.8922 4.54301C72.4606 4.54301 71.7447 5.37826 71.7447 7.04876V20.9575C71.7447 22.6038 72.4606 23.4269 73.8922 23.4269C75.324 23.4269 76.0398 22.6038 76.0398 20.9575V15.9823H73.9676V12.3508H79.9583V20.6669C79.9583 22.7248 79.4308 24.3106 78.3758 25.4242C77.3208 26.5137 75.7887 27.0584 73.7792 27.0584Z" fill="#726BEA"/>
<path d="M88.6098 27.0584C86.5752 27.0584 85.0179 26.5016 83.9379 25.3879C82.8578 24.2742 82.3177 22.7006 82.3177 20.6669V7.30297C82.3177 5.26932 82.8578 3.69566 83.9379 2.582C85.0179 1.46833 86.5752 0.911499 88.6098 0.911499C90.6444 0.911499 92.2017 1.46833 93.2817 2.582C94.3619 3.69566 94.9019 5.26932 94.9019 7.30297V20.6669C94.9019 22.7006 94.3619 24.2742 93.2817 25.3879C92.2017 26.5016 90.6444 27.0584 88.6098 27.0584ZM88.6098 23.4269C90.0415 23.4269 90.7574 22.5916 90.7574 20.9211V7.04876C90.7574 5.37826 90.0415 4.54301 88.6098 4.54301C87.1781 4.54301 86.4622 5.37826 86.4622 7.04876V20.9211C86.4622 22.5916 87.1781 23.4269 88.6098 23.4269Z" fill="#726BEA"/>
<path d="M97.7126 1.27465H101.857V26.6953H97.7126V1.27465Z" fill="#4F46E5"/>
<path d="M104.961 1.27465H111.064C113.124 1.27465 114.669 1.80727 115.699 2.87252C116.729 3.93776 117.244 5.49931 117.244 7.55717V10.0629C117.244 12.1208 116.729 13.6823 115.699 14.7476C114.669 15.8128 113.124 16.3454 111.064 16.3454H109.106V26.6953H104.961V1.27465ZM111.064 12.7139C111.743 12.7139 112.245 12.5323 112.572 12.1692C112.924 11.806 113.099 11.1887 113.099 10.3171V7.30297C113.099 6.4314 112.924 5.81404 112.572 5.45089C112.245 5.08774 111.743 4.90617 111.064 4.90617H109.106V12.7139H111.064Z" fill="#4F46E5"/>
<path d="M125.029 27.0584C123.021 27.0584 121.501 26.5137 120.47 25.4242C119.441 24.3106 118.926 22.7248 118.926 20.6669V19.2143H122.844V20.9575C122.844 22.6038 123.56 23.4269 124.992 23.4269C125.695 23.4269 126.222 23.2332 126.574 22.8459C126.951 22.4343 127.139 21.7806 127.139 20.8848C127.139 19.8196 126.888 18.8875 126.386 18.0886C125.884 17.2654 124.954 16.2849 123.597 15.147C121.89 13.6944 120.697 12.3871 120.018 11.225C119.341 10.0387 119.001 8.70715 119.001 7.23034C119.001 5.2209 119.528 3.67145 120.583 2.582C121.639 1.46833 123.171 0.911499 125.181 0.911499C127.164 0.911499 128.659 1.46833 129.664 2.582C130.694 3.67145 131.208 5.24511 131.208 7.30297V8.35611H127.29V7.04876C127.29 6.1772 127.115 5.54773 126.763 5.16037C126.411 4.7488 125.896 4.54301 125.218 4.54301C123.836 4.54301 123.146 5.35405 123.146 6.97613C123.146 7.89611 123.397 8.75557 123.899 9.5545C124.426 10.3534 125.368 11.3218 126.725 12.4597C128.458 13.9123 129.651 15.2318 130.305 16.4181C130.957 17.6044 131.284 18.9964 131.284 20.5943C131.284 22.6764 130.744 24.2742 129.664 25.3879C128.609 26.5016 127.064 27.0584 125.029 27.0584Z" fill="#4F46E5"/>
<path d="M139.689 27.0584C137.679 27.0584 136.147 26.5137 135.092 25.4242C134.037 24.3106 133.51 22.7248 133.51 20.6669V1.27465H137.654V20.9575C137.654 21.829 137.83 22.4585 138.182 22.8459C138.558 23.2332 139.086 23.4269 139.764 23.4269C140.442 23.4269 140.957 23.2332 141.309 22.8459C141.685 22.4585 141.874 21.829 141.874 20.9575V1.27465H145.867V20.6669C145.867 22.7248 145.34 24.3106 144.285 25.4242C143.23 26.5137 141.698 27.0584 139.689 27.0584Z" fill="#4F46E5"/>
<path d="M148.819 1.27465H154.735L157.372 19.4685H157.447L160.085 1.27465H166V26.6953H162.081V7.44823H162.007L158.992 26.6953H155.525L152.511 7.44823H152.437V26.6953H148.819V1.27465Z" fill="#4F46E5"/>
<path d="M0 26.6953C5.09877 26.6953 9.2321 22.7113 9.2321 17.7969C9.2321 12.8824 5.09877 8.89844 0 8.89844V15.1273C1.52962 15.1273 2.76962 16.3225 2.76962 17.7969C2.76962 19.2712 1.52962 20.4664 0 20.4664V26.6953Z" fill="#726BEA"/>
<path d="M30.7737 11.8646C29.1961 11.3829 27.5161 11.123 25.773 11.123C16.6377 11.123 9.23213 18.261 9.23213 27.066C9.23213 27.9498 9.30675 28.8168 9.45019 29.6614H19.7275C19.3607 28.8686 19.1567 27.9903 19.1567 27.066C19.1567 23.544 22.1189 20.6888 25.773 20.6888C27.7701 20.6888 29.5606 21.5417 30.7737 22.8902V11.8646Z" fill="#A5B4FC"/>
<path d="M1.62318 0C2.38858 6.67374 8.25881 11.8646 15.3869 11.8646C22.5148 11.8646 28.3851 6.67374 29.1504 0H19.247C18.6356 1.4773 17.1376 2.52121 15.3869 2.52121C13.636 2.52121 12.1381 1.4773 11.5266 0H1.62318Z" fill="#4F46E5"/>
</svg>
