<svg width="23" height="23" viewBox="0 0 23 23" fill="none" xmlns="http://www.w3.org/2000/svg">
<path d="M22.0547 8.11123L11.9297 0.236255C11.7323 0.0831154 11.4895 0 11.2397 0C10.9898 0 10.747 0.0831154 10.5496 0.236255L0.42462 8.11126C0.307361 8.20467 0.209927 8.32056 0.138025 8.45211C0.0661237 8.58367 0.0212015 8.72825 0.00589073 8.87739C-0.00942007 9.02653 0.00518847 9.17722 0.0488604 9.32064C0.0925324 9.46406 0.164389 9.59732 0.260221 9.71262C0.356053 9.82791 0.473931 9.92292 0.60695 9.99208C0.739969 10.0612 0.885453 10.1031 1.03488 10.1154C1.1843 10.1276 1.33466 10.1098 1.47714 10.0632C1.61963 10.0166 1.75137 9.94196 1.86465 9.84376V19.875H1.11465C0.818474 19.8783 0.535564 19.9983 0.327309 20.2089C0.119055 20.4196 0.00225815 20.7038 0.00226457 21C0.00227098 21.2962 0.11908 21.5804 0.327343 21.7911C0.535607 22.0017 0.818523 22.1217 1.1147 22.125H21.3647C21.6608 22.1216 21.9437 22.0017 22.152 21.791C22.3603 21.5804 22.4771 21.2962 22.4771 21C22.4771 20.7038 22.3603 20.4195 22.152 20.2089C21.9437 19.9983 21.6608 19.8783 21.3647 19.875H20.6147V9.84373C20.7279 9.94187 20.8597 10.0164 21.0021 10.063C21.1446 10.1096 21.2949 10.1273 21.4443 10.115C21.5937 10.1028 21.7391 10.0609 21.8721 9.99173C22.0051 9.92258 22.1229 9.82759 22.2187 9.71232C22.3146 9.59705 22.3864 9.46383 22.4301 9.32045C22.4738 9.17707 22.4884 9.02641 22.4731 8.87731C22.4578 8.7282 22.4129 8.58365 22.3411 8.4521C22.2693 8.32056 22.1719 8.20467 22.0547 8.11123ZM2.61465 9.25873L11.2397 2.54998L19.8647 9.25873V19.875H18.7397V10.875C18.7397 10.678 18.7009 10.4829 18.6256 10.3009C18.5502 10.1189 18.4397 9.9535 18.3004 9.8142C18.1611 9.6749 17.9958 9.56442 17.8137 9.48905C17.6317 9.41369 17.4366 9.37493 17.2397 9.37498H5.23965C5.04265 9.37493 4.84757 9.41369 4.66556 9.48905C4.48355 9.56442 4.31817 9.6749 4.17887 9.8142C4.03957 9.9535 3.92908 10.1189 3.85372 10.3009C3.77836 10.4829 3.7396 10.678 3.73965 10.875V19.875H2.61465V9.25873ZM12.7396 13.875C12.3421 13.8759 11.9611 14.0342 11.68 14.3153C11.3989 14.5964 11.2405 14.9774 11.2397 15.375V19.875H10.8647V16.6458C10.8621 16.4513 10.8064 16.2611 10.7036 16.096C10.6008 15.9308 10.4547 15.7969 10.2813 15.7087C10.1019 15.6126 9.90153 15.5623 9.698 15.5625H6.19798C5.8998 15.5521 5.60966 15.6603 5.39102 15.8633C5.17239 16.0663 5.04306 16.3477 5.03132 16.6458V19.875H4.48965V12H17.9897V14.0775C17.7618 13.9451 17.5031 13.8753 17.2397 13.875H12.7396ZM16.1147 14.625V15.75H13.8646V14.625H16.1147ZM8.82298 16.1042V16.9166H7.073V16.1042H8.82298ZM21.3647 20.625C21.463 20.6266 21.5568 20.6669 21.6258 20.737C21.6948 20.8072 21.7334 20.9016 21.7334 21C21.7334 21.0984 21.6948 21.1928 21.6258 21.263C21.5568 21.3331 21.463 21.3733 21.3647 21.375H1.11465C1.01628 21.3733 0.922497 21.3331 0.853514 21.263C0.784531 21.1928 0.745873 21.0984 0.745873 21C0.745873 20.9016 0.784531 20.8072 0.853514 20.737C0.922497 20.6669 1.01628 20.6266 1.11465 20.625H21.3647Z" fill="#005FBF"/>
</svg>
