<svg width="22" height="23" viewBox="0 0 22 23" fill="none" xmlns="http://www.w3.org/2000/svg">
<path d="M14.2837 14.7855C14.2837 13.7164 14.2837 12.64 14.2837 11.571C14.2837 11.1273 14.4219 10.9891 14.8583 10.9891H19.4619C19.8546 10.9891 20.0146 11.1491 20.0146 11.5419V16.8873C20.0146 17.0691 20.0437 17.1419 20.2474 17.1346C20.6183 17.1128 21.1928 17.1273 21.5637 17.1273C21.6801 17.1273 21.7819 17.1419 21.8328 17.2582C21.8837 17.3746 21.8401 17.4619 21.7674 17.5491C20.771 18.72 18.3928 21.2146 17.3964 22.3855C17.2437 22.5673 17.1274 22.5673 16.9674 22.3782C15.9783 21.2146 13.6655 18.7273 12.6764 17.5637C12.5964 17.4691 12.5383 17.3746 12.6037 17.251C12.6692 17.1273 12.7637 17.1273 12.8801 17.1273C13.251 17.1273 13.6874 17.1128 14.0583 17.1346C14.2619 17.1419 14.2983 17.0691 14.2983 16.8873C14.2837 15.7891 14.2837 15.8837 14.2837 14.7855Z" fill="#0555AF"/>
<path d="M9.51993 15.9927C9.41811 15.9273 9.3672 15.8036 9.38175 15.6873C9.38902 15.36 9.38175 15.04 9.38902 14.7127C9.38902 14.6255 9.35993 14.5964 9.27993 14.5891C8.59629 14.4873 7.94902 14.2182 7.39629 13.8109C7.23629 13.7018 7.09084 13.5782 6.95993 13.44C6.85811 13.3236 6.84357 13.2291 6.93811 13.1055C7.14902 12.8218 7.35993 12.5455 7.57811 12.2691C7.69448 12.1236 7.81084 12.1091 7.95629 12.2327C8.4072 12.64 8.95266 12.9236 9.54175 13.0545C10.0363 13.1564 10.509 13.1273 10.9599 12.8582C11.4327 12.5745 11.6654 11.8255 11.0472 11.3455C10.7272 11.0982 10.349 10.9527 9.97084 10.7927C9.49811 10.5964 9.01811 10.4218 8.5672 10.1818C8.11629 9.94182 7.71629 9.65091 7.41811 9.22909C7.10539 8.78546 6.97448 8.24727 7.03993 7.70909C7.15629 6.66182 7.78902 6.02182 8.70539 5.61455C8.89448 5.53455 9.09084 5.47636 9.29448 5.44C9.37448 5.42545 9.38175 5.38909 9.38175 5.32364C9.38175 4.97455 9.38175 4.61818 9.38175 4.26909C9.38175 4.08 9.46175 4 9.65084 4H10.4654C10.6327 4 10.7054 4.07273 10.7054 4.24V5.29455C10.7054 5.36727 10.7272 5.39636 10.7999 5.40364C11.4908 5.48364 12.1454 5.76 12.6908 6.18909C12.7199 6.21091 12.749 6.24 12.7781 6.26909C12.9017 6.38546 12.9163 6.45091 12.829 6.59636C12.6617 6.90182 12.4945 7.2 12.3272 7.50546C12.2327 7.67273 12.1017 7.70182 11.9417 7.57818C11.7308 7.41091 11.5054 7.26546 11.2581 7.14909C10.7272 6.90182 10.1817 6.79273 9.6072 6.94545C9.22175 7.04727 8.8872 7.22909 8.75629 7.64364C8.6472 7.98546 8.75629 8.31273 9.02538 8.54545C9.37448 8.85818 9.80357 9.01818 10.2327 9.18546C10.749 9.38909 11.2654 9.58546 11.7599 9.84727C12.109 10.0291 12.4145 10.2764 12.6617 10.5745C12.9308 10.9018 13.0545 11.2945 13.0908 11.7164C13.0908 11.76 13.0981 11.8109 13.0981 11.8545C13.1199 11.8982 13.0908 11.9564 13.1199 12V12.0727C13.0908 12.24 13.1054 12.4145 13.0617 12.5818C12.9527 13.0036 12.749 13.3891 12.4508 13.7164C12.0217 14.1964 11.4763 14.4727 10.8581 14.6109C10.7854 14.6109 10.7345 14.6764 10.7345 14.7491V14.7636C10.7417 15.0836 10.7345 15.4109 10.7345 15.7382C10.7345 15.8618 10.6908 15.9564 10.5599 15.9927H9.51993Z" fill="#0555AF"/>
<path d="M10.6836 17.7164C10.4582 17.7382 10.2255 17.7455 9.99273 17.7455C5.71636 17.7455 2.24727 14.2764 2.24727 10C2.24727 5.72365 5.71636 2.25455 9.99273 2.25455C14.2691 2.25455 17.7382 5.72365 17.7382 10H19.9927V9.99274C19.9855 4.55274 15.4327 8.85662e-06 10 8.85662e-06C4.48 -0.00726387 0 4.46546 0 9.98546V10C0 15.44 4.56 19.9927 9.99273 19.9927C10.88 19.9927 11.7673 19.8764 12.6255 19.6436L10.6836 17.7164Z" fill="#0555AF"/>
</svg>
