<svg width="24" height="24" viewBox="0 0 24 24" fill="none" xmlns="http://www.w3.org/2000/svg">
<g clip-path="url(#clip0_79_240)">
<path d="M10.5255 1.8113L11.1047 0.875526C11.1231 0.845236 11.1475 0.819023 11.1764 0.798493C11.2053 0.777963 11.2381 0.763546 11.2728 0.756126C11.2903 0.752338 11.3082 0.750435 11.3261 0.750449C11.3775 0.750613 11.4276 0.766248 11.47 0.795316L12.0697 1.20424C12.1273 1.24489 12.1673 1.30597 12.1815 1.37506C12.1958 1.44415 12.1831 1.51606 12.1462 1.57617L11.6975 2.30108L12.4763 2.62652L12.9797 1.81315C12.9981 1.78286 13.0225 1.75665 13.0514 1.73611C13.0803 1.71558 13.1131 1.70117 13.1478 1.69375C13.1653 1.68996 13.1832 1.68806 13.2011 1.68807C13.2525 1.68824 13.3026 1.70387 13.345 1.73294L13.9447 2.14186C14.0023 2.18251 14.0423 2.24359 14.0565 2.31268C14.0708 2.38177 14.0581 2.45369 14.0212 2.51379L13.6115 3.17578C13.8299 3.35112 14.0019 3.57748 14.1122 3.83492L14.6672 2.93827C14.6856 2.90798 14.71 2.88177 14.7389 2.86124C14.7678 2.84071 14.8006 2.82629 14.8353 2.81887C14.8528 2.81509 14.8707 2.81318 14.8886 2.8132C14.94 2.81336 14.9901 2.82899 15.0325 2.85806L15.6322 3.26699C15.6898 3.30764 15.7298 3.36872 15.744 3.43781C15.7583 3.5069 15.7456 3.57881 15.7087 3.63892L14.208 6.06353C14.1896 6.09382 14.1651 6.12003 14.1362 6.14056C14.1073 6.16109 14.0746 6.17551 14.0399 6.18293C14.0061 6.1902 13.9712 6.19048 13.9373 6.18374C13.9034 6.177 13.8713 6.16339 13.8429 6.14374L13.7606 6.08774C13.6465 6.31454 13.4844 6.51374 13.2855 6.67145L13.4204 6.76344C13.5864 6.87766 13.7831 6.93889 13.9846 6.93906C14.0264 6.93877 14.0681 6.93588 14.1096 6.9304C14.1753 7.15385 14.3161 7.34782 14.5081 7.47965L15.1079 7.88858C15.2739 8.00279 15.4706 8.06402 15.6721 8.0642C15.8887 8.06429 16.0995 7.99426 16.273 7.86458L15.8303 9.70136C15.8031 9.8133 15.7507 9.91754 15.677 10.0061L14.765 11.0988C14.5376 11.3716 14.4142 11.7162 14.4167 12.0714L14.4205 12.6062C14.7612 12.9543 15.0203 13.3737 15.1793 13.8342L15.1667 12.0659C15.1655 11.8882 15.2272 11.7159 15.3408 11.5793L16.2527 10.4866C16.4002 10.3095 16.5051 10.101 16.5594 9.87698L17.485 6.04554L18.0338 5.15888C18.1736 4.93484 18.2213 4.66539 18.167 4.40695C18.1126 4.1485 17.9603 3.92112 17.7421 3.77242L17.1424 3.3635C16.9409 3.22656 16.6959 3.16859 16.4544 3.20063C16.3891 2.97549 16.2478 2.77995 16.0546 2.64729L15.4549 2.23836C15.2534 2.10135 15.0084 2.04336 14.7669 2.07546C14.7016 1.85033 14.5603 1.6548 14.3671 1.52214L13.7674 1.11323C13.6555 1.03605 13.529 0.982634 13.3957 0.956271C13.2623 0.929908 13.125 0.93116 12.9922 0.95995C12.9419 0.971852 12.8927 0.987574 12.8449 1.00698C12.7684 0.836373 12.6463 0.69019 12.4921 0.584541L11.8924 0.175613C11.7798 0.0988327 11.6528 0.0457092 11.5191 0.0194613C11.3854 -0.00678666 11.2477 -0.00561262 11.1144 0.0229123C10.9812 0.0514372 10.8551 0.106719 10.7438 0.185409C10.6326 0.264098 10.5384 0.364558 10.4671 0.4807L9.81006 1.54228C9.91073 1.56453 10.0092 1.59567 10.1044 1.63532L10.5255 1.8113ZM16.3547 4.06341C16.3731 4.03312 16.3975 4.00691 16.4264 3.98638C16.4553 3.96585 16.4881 3.95143 16.5228 3.94401C16.5403 3.94022 16.5582 3.93832 16.5761 3.93833C16.6275 3.9385 16.6776 3.95413 16.72 3.9832L17.3197 4.39212C17.3773 4.43277 17.4173 4.49385 17.4315 4.56294C17.4458 4.63203 17.4331 4.70395 17.3962 4.76406L15.8955 7.18866C15.8771 7.21895 15.8526 7.24517 15.8237 7.2657C15.7948 7.28623 15.7621 7.30064 15.7274 7.30806C15.6936 7.31538 15.6587 7.31567 15.6248 7.30893C15.5909 7.30219 15.5588 7.28856 15.5304 7.26888L14.9305 6.85995C14.8729 6.8193 14.8329 6.75822 14.8186 6.68913C14.8044 6.62004 14.8171 6.54813 14.854 6.48802L16.3547 4.06341Z" fill="#0555AF"/>
<path d="M9.54574 10.79L9.25093 13.0013C9.48635 12.6709 9.78074 12.3867 10.1193 12.1631L10.3092 10.7388C10.3104 10.73 10.3095 10.7215 10.31 10.7128C10.3114 10.698 10.3119 10.6831 10.3115 10.6682C10.3108 10.6559 10.3083 10.6441 10.3064 10.632C10.3046 10.62 10.3034 10.608 10.3003 10.5961C10.2966 10.5832 10.2922 10.5705 10.2871 10.558C10.2832 10.5478 10.2802 10.5375 10.2754 10.5276C10.268 10.513 10.2597 10.499 10.2505 10.4855C10.2464 10.4792 10.2436 10.4724 10.2391 10.4663L10.2355 10.4615L7.16601 6.30585C7.14031 6.27152 7.12588 6.23006 7.12474 6.18719C7.12359 6.14432 7.13577 6.10215 7.1596 6.0665L9.23712 3.1013C9.26857 3.05667 9.3144 3.02421 9.36694 3.00934C9.41947 2.99447 9.47551 2.9981 9.52569 3.01962L12.6118 4.30921C12.6572 4.32704 12.6954 4.35971 12.72 4.40191C12.7446 4.44412 12.7543 4.4934 12.7474 4.54178L12.4488 5.33307C12.4434 5.34727 12.4389 5.36176 12.4352 5.37647C12.428 5.40552 12.4148 5.43277 12.3966 5.45654C12.3784 5.48032 12.3555 5.50012 12.3294 5.51473C12.3009 5.53116 12.2692 5.54153 12.2365 5.54518C12.2038 5.54884 12.1706 5.5457 12.1392 5.53598C12.1317 5.53378 12.124 5.53176 12.1164 5.52993L9.73864 4.97359C9.66633 4.95668 9.59063 4.96161 9.52113 4.98777C9.45162 5.01392 9.39145 5.06012 9.34823 5.12051C9.30501 5.1809 9.28068 5.25276 9.27834 5.32698C9.276 5.4012 9.29575 5.47445 9.33508 5.53744L11.0037 8.21056C11.0564 8.29491 11.1405 8.35487 11.2374 8.37726C11.3343 8.39964 11.4361 8.38261 11.5205 8.32992C11.6048 8.27722 11.6648 8.19317 11.6872 8.09626C11.7096 7.99935 11.6925 7.89752 11.6398 7.81317L10.4524 5.91084L11.9354 6.25787C12.0628 6.29428 12.1962 6.3049 12.3278 6.28912C12.4594 6.27333 12.5865 6.23145 12.7017 6.16594C12.8128 6.10326 12.9103 6.0191 12.9886 5.91837C13.0668 5.81764 13.1243 5.70234 13.1576 5.5792L13.4592 4.78003C13.4646 4.76587 13.469 4.75137 13.4725 4.73663C13.5273 4.51249 13.4997 4.27615 13.3948 4.07064C13.2899 3.86514 13.1147 3.70415 12.9011 3.61699L9.81499 2.32759C9.60627 2.24017 9.3739 2.2269 9.15657 2.28997C8.93925 2.35305 8.75009 2.48867 8.6206 2.67425L6.5429 5.63963C6.43106 5.80396 6.3728 5.99887 6.37611 6.19762C6.37942 6.39637 6.44414 6.58923 6.5614 6.74975L9.54574 10.79Z" fill="#0555AF"/>
<path d="M23.039 19.8638L20.5647 18.885C20.4923 18.8569 20.4301 18.8075 20.3863 18.7433C20.3425 18.6791 20.3191 18.6032 20.3193 18.5255V17.9474C20.3193 17.9371 20.3171 17.9274 20.3163 17.9173C20.4462 17.8012 20.5626 17.6709 20.6634 17.5288C21.1261 16.8752 21.3747 16.0943 21.3751 15.2935V14.3282C21.3748 14.2983 21.3708 14.2685 21.3634 14.2395V13.7862C21.3651 13.1167 21.1012 12.4739 20.6296 11.9988C20.158 11.5236 19.5171 11.255 18.8477 11.2517H18.6525C17.983 11.255 17.3422 11.5236 16.8706 11.9988C16.399 12.4739 16.1351 13.1167 16.1368 13.7862V14.2378C16.1292 14.2674 16.1253 14.2977 16.1251 14.3282V15.2935C16.1254 16.0943 16.3741 16.8752 16.8368 17.5288C16.9376 17.6709 17.054 17.8012 17.1839 17.9173C17.1831 17.9274 17.1809 17.9371 17.1809 17.9474V18.5255C17.181 18.6032 17.1577 18.6792 17.1139 18.7434C17.0701 18.8075 17.0079 18.857 16.9355 18.8852L14.9785 19.6592L15.9942 20.064L16.9424 19.689L18.4785 21.3027C18.5135 21.3395 18.5557 21.3688 18.6023 21.3888C18.649 21.4088 18.6993 21.4191 18.7501 21.4191C18.7538 21.4191 18.7574 21.4191 18.7611 21.4189C18.8137 21.4174 18.8654 21.4048 18.9128 21.382C18.9602 21.3591 19.0023 21.3266 19.0363 21.2864L20.4306 19.6386L22.7632 20.5612C22.9069 20.6172 23.0303 20.7154 23.1172 20.8428C23.2041 20.9702 23.2504 21.121 23.2501 21.2752V23.6249C23.2501 23.7244 23.2896 23.8197 23.3599 23.8901C23.4303 23.9604 23.5256 23.9999 23.6251 23.9999C23.7245 23.9999 23.8199 23.9604 23.8903 23.8901C23.9606 23.8197 24.0001 23.7244 24.0001 23.6249V21.2752C24.001 20.9704 23.9097 20.6725 23.7381 20.4206C23.5666 20.1687 23.3229 19.9746 23.039 19.8638ZM18.7336 20.483L17.6166 19.3095C17.8188 19.0987 17.9314 18.8177 17.9309 18.5255V18.3725C18.4591 18.5704 19.0411 18.5704 19.5693 18.3725V18.5255C19.5695 18.7755 19.6526 19.0184 19.8056 19.2161L18.7336 20.483ZM18.7501 17.7709C18.4954 17.771 18.2443 17.7099 18.0182 17.5926C17.792 17.4754 17.5973 17.3055 17.4506 17.0973C17.0768 16.5701 16.8757 15.9398 16.8751 15.2935V14.8525L16.8766 14.8475C17.2859 14.9396 17.7104 14.9405 18.1201 14.8502C18.5298 14.7598 18.9145 14.5804 19.2471 14.3247C19.5226 14.6488 20.006 15.0864 20.6251 15.1321V15.2935C20.6245 15.9398 20.4234 16.5701 20.0496 17.0973C19.9028 17.3055 19.7082 17.4754 19.482 17.5926C19.2559 17.7099 19.0048 17.771 18.7501 17.7709Z" fill="#0555AF"/>
<path d="M8.0082 20.0648L9.02764 19.6616L7.06459 18.885C6.99218 18.8569 6.92999 18.8075 6.8862 18.7433C6.8424 18.6791 6.81906 18.6032 6.81923 18.5255V17.9474C6.81923 17.9371 6.81701 17.9274 6.8162 17.9173C6.9461 17.8012 7.06253 17.6709 7.16329 17.5288C7.62601 16.8752 7.87467 16.0943 7.87501 15.2935V14.3282C7.87468 14.2983 7.87075 14.2685 7.86328 14.2395V13.7862C7.86501 13.1167 7.60112 12.4739 7.1295 11.9988C6.65788 11.5236 6.01705 11.255 5.3476 11.2517H5.15241C4.48296 11.255 3.84213 11.5236 3.37051 11.9988C2.89889 12.4739 2.635 13.1167 2.63672 13.7862V14.2378C2.62915 14.2674 2.62521 14.2977 2.62501 14.3282V15.2935C2.62535 16.0943 2.87401 16.8752 3.33674 17.5288C3.43749 17.6709 3.55392 17.8012 3.68382 17.9173C3.68301 17.9274 3.68079 17.9371 3.68079 17.9474V18.5255C3.68094 18.6032 3.65759 18.6792 3.6138 18.7434C3.57001 18.8075 3.50783 18.857 3.43543 18.8852L0.961132 19.8638C0.677233 19.9746 0.4335 20.1687 0.261961 20.4206C0.0904221 20.6725 -0.000895976 20.9704 6.62703e-06 21.2752V23.6249C6.62703e-06 23.7244 0.0395154 23.8197 0.109842 23.8901C0.180168 23.9604 0.27555 23.9999 0.375007 23.9999C0.474463 23.9999 0.569845 23.9604 0.640172 23.8901C0.710498 23.8197 0.750007 23.7244 0.750007 23.6249V21.2752C0.749689 21.121 0.796016 20.9702 0.882907 20.8428C0.969797 20.7154 1.09319 20.6172 1.23688 20.5612L3.44237 19.689L4.97846 21.3027C5.01346 21.3395 5.05558 21.3688 5.10226 21.3888C5.14894 21.4088 5.19921 21.4191 5.25001 21.4191C5.25367 21.4191 5.25733 21.4191 5.26099 21.4189C5.31361 21.4174 5.36531 21.4048 5.41273 21.382C5.46014 21.3591 5.50222 21.3266 5.5362 21.2864L6.93051 19.6386L8.0082 20.0648ZM5.23353 20.483L4.11647 19.3095C4.31867 19.0987 4.43133 18.8177 4.43079 18.5255V18.3725C4.95901 18.5704 5.54101 18.5704 6.06922 18.3725V18.5255C6.06938 18.7755 6.1525 19.0184 6.30556 19.2161L5.23353 20.483ZM5.25001 17.7709C4.99527 17.771 4.74424 17.7099 4.51808 17.5926C4.29192 17.4754 4.09726 17.3055 3.95051 17.0973C3.5767 16.5701 3.37563 15.9398 3.37501 15.2935V14.8525L3.37655 14.8475C3.78582 14.9396 4.21035 14.9405 4.62001 14.8502C5.02967 14.7598 5.41443 14.5804 5.74699 14.3247C6.02249 14.6488 6.50595 15.0864 7.12501 15.1321V15.2935C7.12439 15.9398 6.92331 16.5701 6.5495 17.0973C6.40276 17.3055 6.2081 17.4754 5.98193 17.5926C5.75577 17.7099 5.50474 17.771 5.25001 17.7709Z" fill="#0555AF"/>
<path d="M16.2889 20.9891L13.8146 20.0103C13.7422 19.9821 13.68 19.9327 13.6362 19.8685C13.5924 19.8044 13.569 19.7285 13.5692 19.6508V19.0726C13.5692 19.0624 13.567 19.0527 13.5662 19.0426C13.6961 18.9265 13.8125 18.7961 13.9133 18.654C14.376 18.0005 14.6247 17.2195 14.625 16.4188V15.4535C14.6247 15.4235 14.6208 15.3937 14.6133 15.3647V14.9114C14.615 14.242 14.3511 13.5992 13.8795 13.124C13.4079 12.6489 12.7671 12.3802 12.0976 12.377H11.9024C11.233 12.3802 10.5921 12.6489 10.1205 13.124C9.6489 13.5992 9.385 14.242 9.38672 14.9114V15.3631C9.37915 15.3926 9.37521 15.423 9.37501 15.4535V16.4188C9.37535 17.2195 9.62401 18.0005 10.0867 18.654C10.1875 18.7961 10.3039 18.9265 10.4338 19.0426C10.433 19.0527 10.4308 19.0624 10.4308 19.0726V19.6508C10.4309 19.7285 10.4076 19.8044 10.3638 19.8686C10.32 19.9328 10.2578 19.9822 10.1854 20.0104L7.71113 20.9891C7.42723 21.0999 7.1835 21.294 7.01196 21.5459C6.84042 21.7978 6.7491 22.0957 6.75001 22.4004V23.625C6.75001 23.7245 6.78952 23.8198 6.85984 23.8902C6.93017 23.9605 7.02555 24 7.12501 24C7.22446 24 7.31985 23.9605 7.39017 23.8902C7.4605 23.8198 7.50001 23.7245 7.50001 23.625V22.4004C7.49969 22.2462 7.54602 22.0955 7.63291 21.9681C7.7198 21.8406 7.84319 21.7425 7.98688 21.6864L10.1924 20.8143L11.7285 22.4279C11.7635 22.4647 11.8056 22.494 11.8523 22.514C11.8989 22.5341 11.9492 22.5444 12 22.5444C12.0037 22.5444 12.0073 22.5444 12.011 22.5442C12.0636 22.5427 12.1153 22.5301 12.1627 22.5072C12.2101 22.4844 12.2522 22.4518 12.2862 22.4116L13.6805 20.7638L16.0131 21.6864C16.1568 21.7424 16.2802 21.8406 16.3671 21.9681C16.454 22.0955 16.5003 22.2462 16.5 22.4004V23.625C16.5 23.7245 16.5395 23.8198 16.6098 23.8902C16.6802 23.9605 16.7756 24 16.875 24C16.9745 24 17.0698 23.9605 17.1402 23.8902C17.2105 23.8198 17.25 23.7245 17.25 23.625V22.4004C17.2509 22.0957 17.1596 21.7978 16.9881 21.5459C16.8165 21.294 16.5728 21.0999 16.2889 20.9891ZM11.9835 21.6082L10.8665 20.4348C11.0687 20.2239 11.1813 19.9429 11.1808 19.6508V19.4978C11.709 19.6957 12.291 19.6957 12.8192 19.4978V19.6508C12.8194 19.9008 12.9025 20.1437 13.0556 20.3414L11.9835 21.6082ZM12 18.8961C11.7453 18.8962 11.4942 18.8351 11.2681 18.7179C11.0419 18.6007 10.8473 18.4308 10.7005 18.2226C10.3267 17.6953 10.1256 17.0651 10.125 16.4188V15.9778L10.1266 15.9728C10.5358 16.0649 10.9603 16.0658 11.37 15.9754C11.7797 15.8851 12.1644 15.7057 12.497 15.4499C12.7725 15.774 13.2559 16.2116 13.875 16.2573V16.4188C13.8744 17.0651 13.6733 17.6953 13.2995 18.2226C13.1528 18.4308 12.9581 18.6007 12.7319 18.7179C12.5058 18.8351 12.2547 18.8962 12 18.8961Z" fill="#0555AF"/>
</g>
<defs>
<clipPath id="clip0_79_240">
<rect width="24" height="24" fill="white"/>
</clipPath>
</defs>
</svg>
