<svg width="24" height="15" viewBox="0 0 24 15" fill="none" xmlns="http://www.w3.org/2000/svg">
<path d="M23.8879 8.33127C23.66 7.69615 23.193 7.19552 22.5729 6.92279C21.9527 6.65381 21.2653 6.64633 20.6451 6.9116L16.4496 8.68619C16.457 8.63014 16.4682 8.57783 16.4682 8.52555C16.4682 7.71108 15.807 7.04609 14.9925 7.04609H11.9701C11.8506 7.04609 11.7273 7.01993 11.6152 6.97136L9.05604 5.81322C8.65257 5.63016 8.21918 5.53676 7.77459 5.53676H4.88294V5.32752C4.88294 4.91283 4.54672 4.58032 4.13574 4.58032H0V14.0062H4.13574C4.54672 14.0062 4.88294 13.6737 4.88294 13.259V12.6725H6.80325L11.2678 14.1071C11.6376 14.2267 12.0224 14.2827 12.4072 14.2827C13.0125 14.2827 13.614 14.137 14.1557 13.8531L24 8.63762L23.8879 8.33127ZM2.62641 12.6202C2.33874 12.6202 2.10337 12.3848 2.10337 12.0972C2.10337 11.8095 2.33874 11.5741 2.62641 11.5741C2.91781 11.5741 3.15318 11.8095 3.15318 12.0972C3.15318 12.3848 2.91781 12.6202 2.62641 12.6202ZM13.8045 13.1918C13.0984 13.5654 12.2578 13.6401 11.4994 13.3935L6.97511 11.944L4.88294 11.929V6.28395H7.77459C8.11458 6.28395 8.43961 6.35492 8.74971 6.49317L11.3088 7.65132C11.5181 7.74472 11.7422 7.79329 11.9701 7.79329H14.9925C15.3923 7.79329 15.7211 8.12206 15.7211 8.52555C15.7211 8.92528 15.3923 9.25405 14.9925 9.25405H11.0847V10.0013H14.9925C15.2503 10.0013 15.4857 9.92655 15.6986 9.81071V9.81445L20.9328 7.59901C21.3661 7.41595 21.8406 7.41969 22.2702 7.60649C22.6027 7.7522 22.8717 7.99129 23.0473 8.2939L13.8045 13.1918Z" fill="#0555AF"/>
<path d="M9.5 5.44211V4.01496C9.5 3.80948 9.66812 3.64136 9.8736 3.64136H11.368C11.5735 3.64136 11.7416 3.80948 11.7416 4.01496V6.4583L9.5 5.44211Z" fill="#0555AF"/>
<path d="M15.4221 1.86798V6.33995H15.4034C15.2726 6.31379 15.1344 6.29886 14.9924 6.29886H13.1768V1.86798C13.1768 1.66249 13.3449 1.49438 13.5504 1.49438H15.0485C15.254 1.49438 15.4221 1.66249 15.4221 1.86798Z" fill="#0555AF"/>
<path d="M19.1618 0.373597V6.7285L17.0286 7.62888C16.9949 7.55416 16.9576 7.48317 16.9165 7.41219V0.373597C16.9165 0.168101 17.0846 0 17.2901 0H18.7882C18.9937 0 19.1618 0.168101 19.1618 0.373597Z" fill="#0555AF"/>
</svg>
