<svg width="22" height="24" viewBox="0 0 22 24" fill="none" xmlns="http://www.w3.org/2000/svg">
<path d="M21.0938 9.14059C21.0938 8.75195 20.7793 8.43746 20.3906 8.43746C20.002 8.43746 19.6875 8.75195 19.6875 9.14059V10.2557L12.4502 3.01848C12.1757 2.74393 11.7305 2.74393 11.456 3.01848L9.14064 5.33382L4.01275 0.20598C3.73811 -0.0686602 3.29312 -0.0686602 3.01848 0.20598C2.74384 0.480621 2.74384 0.925606 3.01848 1.20025L8.64348 6.82525C8.91803 7.09979 9.3632 7.09979 9.63775 6.82525L11.9531 4.50986L18.6932 11.25H17.5781C17.1895 11.25 16.875 11.5644 16.875 11.9531C16.875 12.3417 17.1895 12.6562 17.5781 12.6562H20.3906C20.7774 12.6562 21.0938 12.3398 21.0938 11.9531V9.14059Z" fill="#0555AF"/>
<path d="M8.4375 8.4375H9.84375V11.25H8.4375V8.4375Z" fill="#0555AF"/>
<path d="M4.92188 8.4375C4.53356 8.4375 4.21875 8.75231 4.21875 9.14062V14.0625H14.0625V9.14062C14.0625 8.75231 13.7477 8.4375 13.3594 8.4375H11.25V11.9531C11.25 12.3414 10.9352 12.6562 10.5469 12.6562H7.73438C7.34606 12.6562 7.03125 12.3414 7.03125 11.9531V8.4375H4.92188Z" fill="#0555AF"/>
<path d="M3.51562 15.4688H4.92188V18.2812H3.51562V15.4688Z" fill="#0555AF"/>
<path d="M13.3594 15.4688H14.7656V18.2812H13.3594V15.4688Z" fill="#0555AF"/>
<path d="M6.32812 18.9844C6.32812 19.3727 6.01331 19.6875 5.625 19.6875H2.8125C2.42419 19.6875 2.10938 19.3727 2.10938 18.9844V15.4688H0.703125C0.314812 15.4688 0 15.7836 0 16.1719V23.2969C0 23.6852 0.314812 24 0.703125 24H7.73438C8.12269 24 8.4375 23.6852 8.4375 23.2969V16.1719C8.4375 15.7836 8.12269 15.4688 7.73438 15.4688H6.32812V18.9844Z" fill="#0555AF"/>
<path d="M17.5781 15.4688H16.1719V18.9844C16.1719 19.3727 15.8571 19.6875 15.4688 19.6875H12.6562C12.2679 19.6875 11.9531 19.3727 11.9531 18.9844V15.4688H10.5469C10.1586 15.4688 9.84375 15.7836 9.84375 16.1719V23.2969C9.84375 23.6852 10.1586 24 10.5469 24H17.5781C17.9664 24 18.2812 23.6852 18.2812 23.2969V16.1719C18.2812 15.7836 17.9664 15.4688 17.5781 15.4688Z" fill="#0555AF"/>
</svg>
