<svg width="24" height="24" viewBox="0 0 24 24" fill="none" xmlns="http://www.w3.org/2000/svg">
<g clip-path="url(#clip0_79_276)">
<path d="M23.8879 13.1899C23.66 12.5548 23.193 12.0542 22.5729 11.7814C21.9527 11.5125 21.2653 11.505 20.6451 11.7702L16.4496 13.5448C16.457 13.4888 16.4682 13.4365 16.4682 13.3842C16.4682 12.5697 15.807 11.9047 14.9925 11.9047H11.9701C11.8506 11.9047 11.7273 11.8786 11.6152 11.83L9.05604 10.6719C8.65257 10.4888 8.21918 10.3954 7.77459 10.3954H4.88294V10.1862C4.88294 9.77147 4.54672 9.43896 4.13574 9.43896H0V18.8649H4.13574C4.54672 18.8649 4.88294 18.5324 4.88294 18.1177V17.5311H6.80325L11.2678 18.9657C11.6376 19.0853 12.0224 19.1413 12.4072 19.1413C13.0125 19.1413 13.614 18.9956 14.1557 18.7117L24 13.4963L23.8879 13.1899ZM2.62641 17.4788C2.33874 17.4788 2.10337 17.2435 2.10337 16.9558C2.10337 16.6681 2.33874 16.4328 2.62641 16.4328C2.91781 16.4328 3.15318 16.6681 3.15318 16.9558C3.15318 17.2435 2.91781 17.4788 2.62641 17.4788ZM13.8045 18.0504C13.0984 18.424 12.2578 18.4987 11.4994 18.2522L6.97511 16.8026L4.88294 16.7877V11.1426H7.77459C8.11458 11.1426 8.43961 11.2136 8.74971 11.3518L11.3088 12.51C11.5181 12.6034 11.7422 12.6519 11.9701 12.6519H14.9925C15.3923 12.6519 15.7211 12.9807 15.7211 13.3842C15.7211 13.7839 15.3923 14.1127 14.9925 14.1127H11.0847V14.8599H14.9925C15.2503 14.8599 15.4857 14.7852 15.6986 14.6694V14.6731L20.9328 12.4577C21.3661 12.2746 21.8406 12.2783 22.2702 12.4651C22.6027 12.6108 22.8717 12.8499 23.0473 13.1525L13.8045 18.0504Z" fill="#0555AF"/>
<path d="M9.44092 10.0235V8.59638C9.44092 8.3909 9.60904 8.22278 9.81452 8.22278H11.3089C11.5144 8.22278 11.6825 8.3909 11.6825 8.59638V11.0397L9.44092 10.0235Z" fill="#0555AF"/>
<path d="M15.4221 6.72662V11.1986H15.4034C15.2726 11.1724 15.1344 11.1575 14.9924 11.1575H13.1768V6.72662C13.1768 6.52113 13.3449 6.35303 13.5504 6.35303H15.0485C15.254 6.35303 15.4221 6.52113 15.4221 6.72662Z" fill="#0555AF"/>
<path d="M19.1618 5.23224V11.5871L17.0286 12.4875C16.9949 12.4128 16.9576 12.3418 16.9165 12.2708V5.23224C16.9165 5.02674 17.0846 4.85864 17.2901 4.85864H18.7882C18.9937 4.85864 19.1618 5.02674 19.1618 5.23224Z" fill="#0555AF"/>
</g>
<defs>
<clipPath id="clip0_79_276">
<rect width="24" height="24" fill="white"/>
</clipPath>
</defs>
</svg>
