<svg width="24" height="24" viewBox="0 0 24 24" fill="none" xmlns="http://www.w3.org/2000/svg">
<g clip-path="url(#clip0_79_293)">
<path d="M14.8127 14.0039C14.6825 14.2295 14.4461 14.3556 14.2031 14.3556C14.0838 14.3556 13.9629 14.3252 13.8522 14.2612L12.1332 13.2687C11.9034 13.4127 11.6322 13.4963 11.3416 13.4963C10.5168 13.4963 9.84581 12.8248 9.84581 11.9994C9.84581 11.4287 10.1672 10.9318 10.6385 10.6797V7.04695C10.6385 6.65864 10.9533 6.34382 11.3416 6.34382C11.73 6.34382 12.0448 6.65864 12.0448 7.04695V10.6797C12.516 10.9318 12.8374 11.4287 12.8374 11.9994C12.8374 12.0166 12.8367 12.0336 12.8361 12.0506L14.5554 13.0434C14.8917 13.2376 15.0069 13.6676 14.8127 14.0039H14.8127ZM23.625 17.8379C23.625 20.6655 21.3246 22.9659 18.497 22.9659C17.4384 22.9659 16.4537 22.6434 15.636 22.0916C14.2786 22.6713 12.8362 22.9659 11.3415 22.9659C8.41219 22.9659 5.65819 21.8252 3.58692 19.7539C1.51566 17.6827 0.375 14.9287 0.375 11.9993C0.375 9.06998 1.5157 6.31692 3.58692 4.24584C5.65828 2.17471 8.41223 1.03406 11.3416 1.03406C14.271 1.03406 17.0249 2.17467 19.0962 4.24584C21.1675 6.31692 22.3082 9.07049 22.3082 11.9993C22.3082 12.7324 22.2339 13.4646 22.0889 14.182C23.0363 15.113 23.625 16.4079 23.625 17.8379H23.625ZM18.497 12.71C19.0604 12.71 19.6027 12.8016 20.1102 12.9702C20.1453 12.6492 20.1635 12.3245 20.1635 11.9993C20.1635 7.13489 16.206 3.17737 11.3415 3.17737C6.47709 3.17737 2.51962 7.13489 2.51962 11.9993C2.51962 16.8638 6.47714 20.8226 11.3415 20.8226C12.2709 20.8226 13.1806 20.6796 14.0545 20.397C13.6187 19.6434 13.369 18.7693 13.369 17.838C13.369 15.0104 15.6694 12.7101 18.497 12.7101L18.497 12.71ZM20.9416 16.1113C20.6727 15.8312 20.2276 15.822 19.9474 16.091L17.8613 18.0934L17.0568 17.2889C16.7823 17.0144 16.3371 17.0144 16.0625 17.2889C15.7879 17.5635 15.7879 18.0087 16.0625 18.2833L17.354 19.5749C17.4912 19.7121 17.6711 19.7809 17.8512 19.7809C18.0265 19.7809 18.2019 19.7157 18.3381 19.585L20.9213 17.1055C21.2014 16.8366 21.2105 16.3915 20.9416 16.1114V16.1113Z" fill="#0555AF"/>
</g>
<defs>
<clipPath id="clip0_79_293">
<rect width="24" height="24" fill="white"/>
</clipPath>
</defs>
</svg>
