<svg width="24" height="24" viewBox="0 0 24 24" fill="none" xmlns="http://www.w3.org/2000/svg">
<path d="M22.125 19.3125C22.2245 19.3125 22.3198 19.2729 22.3902 19.2026C22.4605 19.1323 22.5 19.0369 22.5 18.9375V15.8531C22.5028 15.825 22.5028 15.7968 22.5 15.7687L21 9.29058C20.9806 9.20634 20.9326 9.13139 20.8643 9.07843C20.796 9.02547 20.7114 8.99775 20.625 8.99996H15V7.87496C15 7.7755 14.9605 7.68012 14.8902 7.60979C14.8198 7.53947 14.7245 7.49996 14.625 7.49996H11.25C10.9026 7.0315 10.4503 6.65091 9.92931 6.38868C9.40836 6.12645 8.83323 5.98987 8.25 5.98987C7.66677 5.98987 7.09164 6.12645 6.57069 6.38868C6.04973 6.65091 5.59743 7.0315 5.25 7.49996H1.875C1.77554 7.49996 1.68016 7.53947 1.60984 7.60979C1.53951 7.68012 1.5 7.7755 1.5 7.87496V18.9375C1.5 19.0369 1.53951 19.1323 1.60984 19.2026C1.68016 19.2729 1.77554 19.3125 1.875 19.3125H3.07312C3.16384 19.6608 3.3368 19.9823 3.5775 20.25H1.875C1.77554 20.25 1.68016 20.2895 1.60984 20.3598C1.53951 20.4301 1.5 20.5255 1.5 20.625C1.5 20.7244 1.53951 20.8198 1.60984 20.8901C1.68016 20.9604 1.77554 21 1.875 21H22.125C22.2245 21 22.3198 20.9604 22.3902 20.8901C22.4605 20.8198 22.5 20.7244 22.5 20.625C22.5 20.5255 22.4605 20.4301 22.3902 20.3598C22.3198 20.2895 22.2245 20.25 22.125 20.25H19.6725C19.9132 19.9823 20.0862 19.6608 20.1769 19.3125H22.125ZM20.6737 11.25L21.5419 15H18.75V11.25H20.6737ZM8.25 6.74996C8.84334 6.74996 9.42336 6.92591 9.91671 7.25555C10.4101 7.58519 10.7946 8.05373 11.0216 8.60191C11.2487 9.15009 11.3081 9.75329 11.1924 10.3352C11.0766 10.9172 10.7909 11.4517 10.3713 11.8713C9.95176 12.2908 9.41721 12.5766 8.83527 12.6923C8.25333 12.8081 7.65013 12.7487 7.10195 12.5216C6.55377 12.2945 6.08523 11.91 5.75559 11.4167C5.42595 10.9233 5.25 10.3433 5.25 9.74996C5.25 8.95431 5.56607 8.19125 6.12868 7.62864C6.69129 7.06603 7.45435 6.74996 8.25 6.74996ZM2.25 8.24996H4.815C4.56504 8.82069 4.46122 9.44471 4.51294 10.0656C4.56466 10.6866 4.77027 11.2848 5.1112 11.8063C5.45214 12.3278 5.91765 12.7562 6.46566 13.0527C7.01368 13.3491 7.62693 13.5044 8.25 13.5044C8.87307 13.5044 9.48632 13.3491 10.0343 13.0527C10.5824 12.7562 11.0479 12.3278 11.3888 11.8063C11.7297 11.2848 11.9353 10.6866 11.9871 10.0656C12.0388 9.44471 11.935 8.82069 11.685 8.24996H14.25V15H2.25V8.24996ZM5.25 20.25C4.95333 20.25 4.66332 20.162 4.41664 19.9972C4.16997 19.8323 3.97771 19.5981 3.86418 19.324C3.75065 19.0499 3.72094 18.7483 3.77882 18.4573C3.8367 18.1664 3.97956 17.8991 4.18934 17.6893C4.39912 17.4795 4.66639 17.3367 4.95736 17.2788C5.24834 17.2209 5.54994 17.2506 5.82402 17.3641C6.09811 17.4777 6.33238 17.6699 6.4972 17.9166C6.66203 18.1633 6.75 18.4533 6.75 18.75C6.75 19.1478 6.59196 19.5293 6.31066 19.8106C6.02935 20.0919 5.64782 20.25 5.25 20.25ZM6.9225 20.25C7.1632 19.9823 7.33616 19.6608 7.42687 19.3125H8.32312C8.41384 19.6608 8.5868 19.9823 8.8275 20.25H6.9225ZM10.5 20.25C10.2033 20.25 9.91332 20.162 9.66664 19.9972C9.41997 19.8323 9.22771 19.5981 9.11418 19.324C9.00065 19.0499 8.97094 18.7483 9.02882 18.4573C9.0867 18.1664 9.22956 17.8991 9.43934 17.6893C9.64912 17.4795 9.91639 17.3367 10.2074 17.2788C10.4983 17.2209 10.7999 17.2506 11.074 17.3641C11.3481 17.4777 11.5824 17.6699 11.7472 17.9166C11.912 18.1633 12 18.4533 12 18.75C12 19.1478 11.842 19.5293 11.5607 19.8106C11.2794 20.0919 10.8978 20.25 10.5 20.25ZM10.5 16.5C9.93437 16.498 9.38875 16.7091 8.97179 17.0913C8.55484 17.4736 8.29713 17.9988 8.25 18.5625H7.5C7.44882 18.0036 7.19063 17.484 6.77609 17.1057C6.36155 16.7274 5.82059 16.5176 5.25937 16.5176C4.69816 16.5176 4.1572 16.7274 3.74266 17.1057C3.32812 17.484 3.06993 18.0036 3.01875 18.5625H2.25V17.25H2.625C2.72446 17.25 2.81984 17.2104 2.89016 17.1401C2.96049 17.0698 3 16.9744 3 16.875C3 16.7755 2.96049 16.6801 2.89016 16.6098C2.81984 16.5395 2.72446 16.5 2.625 16.5H2.25V15.75H14.25V18.5625H12.75C12.7029 17.9988 12.4452 17.4736 12.0282 17.0913C11.6112 16.7091 11.0656 16.498 10.5 16.5ZM12.1725 20.25C12.4132 19.9823 12.5862 19.6608 12.6769 19.3125H15.8231C15.9138 19.6608 16.0868 19.9823 16.3275 20.25H12.1725ZM18 20.25C17.7033 20.25 17.4133 20.162 17.1666 19.9972C16.92 19.8323 16.7277 19.5981 16.6142 19.324C16.5006 19.0499 16.4709 18.7483 16.5288 18.4573C16.5867 18.1664 16.7296 17.8991 16.9393 17.6893C17.1491 17.4795 17.4164 17.3367 17.7074 17.2788C17.9983 17.2209 18.2999 17.2506 18.574 17.3641C18.8481 17.4777 19.0824 17.6699 19.2472 17.9166C19.412 18.1633 19.5 18.4533 19.5 18.75C19.5 19.1478 19.342 19.5293 19.0607 19.8106C18.7794 20.0919 18.3978 20.25 18 20.25ZM18 16.5C17.4344 16.498 16.8888 16.7091 16.4718 17.0913C16.0548 17.4736 15.7971 17.9988 15.75 18.5625H15V9.74996H20.3269L20.5012 10.5H18.375C18.2755 10.5 18.1802 10.5395 18.1098 10.6098C18.0395 10.6801 18 10.7755 18 10.875V15.375C18 15.4744 18.0395 15.5698 18.1098 15.6401C18.1802 15.7104 18.2755 15.75 18.375 15.75H21.7162C21.7762 15.75 21.75 17.1131 21.75 17.25H21.375C21.2755 17.25 21.1802 17.2895 21.1098 17.3598C21.0395 17.4301 21 17.5255 21 17.625C21 17.7244 21.0395 17.8198 21.1098 17.8901C21.1802 17.9604 21.2755 18 21.375 18H21.75V18.5625H20.25C20.2029 17.9988 19.9452 17.4736 19.5282 17.0913C19.1112 16.7091 18.5656 16.498 18 16.5Z" fill="#0555AF"/>
<path d="M21.5419 15H18.75V11.25H20.6738L21.5419 15Z" fill="#0555AF"/>
<path d="M8.25 6.75C7.65666 6.75 7.07664 6.92595 6.58329 7.25559C6.08994 7.58524 5.70543 8.05377 5.47836 8.60195C5.2513 9.15013 5.19189 9.75333 5.30765 10.3353C5.4234 10.9172 5.70912 11.4518 6.12868 11.8713C6.54824 12.2909 7.08279 12.5766 7.66473 12.6924C8.24667 12.8081 8.84987 12.7487 9.39805 12.5216C9.94623 12.2946 10.4148 11.9101 10.7444 11.4167C11.0741 10.9234 11.25 10.3433 11.25 9.75C11.25 8.95435 10.9339 8.19129 10.3713 7.62868C9.80871 7.06607 9.04565 6.75 8.25 6.75ZM9.91125 11.37L8.46188 10.3687C8.36473 10.4033 8.26074 10.4143 8.15852 10.4006C8.05631 10.387 7.95882 10.3492 7.87414 10.2903C7.78945 10.2315 7.72001 10.1533 7.67158 10.0623C7.62314 9.97125 7.59711 9.86998 7.59563 9.76688L7.47375 9.6825C7.43052 9.65567 7.39319 9.62031 7.36406 9.57859C7.33492 9.53687 7.31458 9.48966 7.30427 9.43983C7.29397 9.39 7.29391 9.33859 7.30411 9.28873C7.3143 9.23888 7.33454 9.19162 7.36359 9.14984C7.39263 9.10806 7.42987 9.07262 7.47305 9.04569C7.51623 9.01876 7.56444 9.0009 7.61474 8.9932C7.66504 8.9855 7.71638 8.98811 7.76563 9.00088C7.81489 9.01366 7.86103 9.03632 7.90125 9.0675L8.00813 9.14062C8.085 9.10965 8.16712 9.09374 8.25 9.09375C8.42405 9.09375 8.59097 9.16289 8.71404 9.28596C8.83711 9.40903 8.90625 9.57595 8.90625 9.75C8.90625 9.75 8.90625 9.75 8.90625 9.76125L10.3406 10.755C10.3839 10.7818 10.4212 10.8172 10.4503 10.8589C10.4795 10.9006 10.4998 10.9478 10.5101 10.9977C10.5204 11.0475 10.5205 11.0989 10.5103 11.1488C10.5001 11.1986 10.4798 11.2459 10.4508 11.2877C10.4217 11.3294 10.3845 11.3649 10.3413 11.3918C10.2981 11.4187 10.2499 11.4366 10.1996 11.4443C10.1493 11.452 10.098 11.4494 10.0487 11.4366C9.99949 11.4238 9.95334 11.4012 9.91313 11.37H9.91125Z" fill="#0555AF"/>
<path d="M16.875 14.25H16.125C16.0255 14.25 15.9302 14.2895 15.8598 14.3598C15.7895 14.4302 15.75 14.5255 15.75 14.625C15.75 14.7245 15.7895 14.8198 15.8598 14.8902C15.9302 14.9605 16.0255 15 16.125 15H16.875C16.9745 15 17.0698 14.9605 17.1402 14.8902C17.2105 14.8198 17.25 14.7245 17.25 14.625C17.25 14.5255 17.2105 14.4302 17.1402 14.3598C17.0698 14.2895 16.9745 14.25 16.875 14.25Z" fill="#0555AF"/>
<path d="M1.875 6.75H4.125C4.22446 6.75 4.31984 6.71049 4.39016 6.64017C4.46049 6.56984 4.5 6.47446 4.5 6.375C4.5 6.27554 4.46049 6.18016 4.39016 6.10983C4.31984 6.03951 4.22446 6 4.125 6H1.875C1.77554 6 1.68016 6.03951 1.60984 6.10983C1.53951 6.18016 1.5 6.27554 1.5 6.375C1.5 6.47446 1.53951 6.56984 1.60984 6.64017C1.68016 6.71049 1.77554 6.75 1.875 6.75Z" fill="#0555AF"/>
<path d="M5.25 4.125C5.25 4.22446 5.28951 4.31984 5.35984 4.39016C5.43016 4.46049 5.52554 4.5 5.625 4.5H9.375C9.47446 4.5 9.56984 4.46049 9.64017 4.39016C9.71049 4.31984 9.75 4.22446 9.75 4.125C9.75 4.02554 9.71049 3.93016 9.64017 3.85984C9.56984 3.78951 9.47446 3.75 9.375 3.75H5.625C5.52554 3.75 5.43016 3.78951 5.35984 3.85984C5.28951 3.93016 5.25 4.02554 5.25 4.125Z" fill="#0555AF"/>
<path d="M1.875 2.25H6.5625C6.66196 2.25 6.75734 2.21049 6.82767 2.14016C6.89799 2.06984 6.9375 1.97446 6.9375 1.875C6.9375 1.77554 6.89799 1.68016 6.82767 1.60984C6.75734 1.53951 6.66196 1.5 6.5625 1.5H1.875C1.77554 1.5 1.68016 1.53951 1.60984 1.60984C1.53951 1.68016 1.5 1.77554 1.5 1.875C1.5 1.97446 1.53951 2.06984 1.60984 2.14016C1.68016 2.21049 1.77554 2.25 1.875 2.25Z" fill="#0555AF"/>
<path d="M10.875 21.75H4.125C4.02554 21.75 3.93016 21.7895 3.85984 21.8598C3.78951 21.9302 3.75 22.0255 3.75 22.125C3.75 22.2245 3.78951 22.3198 3.85984 22.3902C3.93016 22.4605 4.02554 22.5 4.125 22.5H10.875C10.9745 22.5 11.0698 22.4605 11.1402 22.3902C11.2105 22.3198 11.25 22.2245 11.25 22.125C11.25 22.0255 11.2105 21.9302 11.1402 21.8598C11.0698 21.7895 10.9745 21.75 10.875 21.75Z" fill="#0555AF"/>
</svg>
