<svg width="28" height="28" viewBox="0 0 28 28" fill="none" xmlns="http://www.w3.org/2000/svg">
<path d="M22.0324 8.1083C21.1011 6.8495 19.8867 5.82741 18.4874 5.1246C17.0881 4.4218 15.5431 4.05798 13.9773 4.06254C12.4114 4.06711 10.8686 4.43992 9.47341 5.15087C8.07825 5.86182 6.86986 6.89097 5.94589 8.15518C1.11194 14.7313 6.00101 24.1488 14.2446 23.9535C22.2953 23.7529 26.753 14.4992 22.0324 8.1083ZM21.4744 18.9389C20.6498 18.4628 19.7683 18.0932 18.8509 17.8387C19.0854 16.7407 19.2157 15.6231 19.24 14.5006H22.9392C22.8549 16.0841 22.3492 17.6163 21.4744 18.9389ZM14.4992 17.1921V14.5006H18.2397C18.2143 15.54 18.0943 16.5749 17.8813 17.5925C16.7693 17.3512 15.6368 17.2171 14.4992 17.1921ZM5.05919 14.5006H8.7584C8.78261 15.623 8.91286 16.7406 9.14744 17.8385C8.23 18.0931 7.34845 18.4628 6.52382 18.9387C5.64914 17.6161 5.14351 16.084 5.05919 14.5006ZM6.52382 9.06256C7.34895 9.5388 8.23108 9.9086 9.14915 10.1631C9.01964 10.7518 8.92053 11.3468 8.85221 11.9457C8.838 12.0774 8.87659 12.2093 8.9595 12.3125C9.04241 12.4157 9.16288 12.4819 9.29449 12.4964C9.42611 12.511 9.55811 12.4727 9.66157 12.3901C9.76502 12.3074 9.83148 12.1871 9.84636 12.0556C9.90934 11.5025 10.0003 10.953 10.1188 10.4091C11.2302 10.6502 12.3622 10.7841 13.4992 10.8091V13.5006H5.05919C5.14351 11.9173 5.64914 10.3851 6.52382 9.06256ZM14.4992 10.8092C15.6368 10.7842 16.7693 10.6502 17.8813 10.4089C18.0944 11.4265 18.2143 12.4613 18.2397 13.5006H14.4992V10.8092ZM14.4992 9.80926V5.10473C15.7782 5.44464 16.9641 7.07068 17.6463 9.43719C16.6113 9.66014 15.5576 9.78472 14.4992 9.80926ZM13.4992 5.10583V9.80926C12.4409 9.7847 11.3873 9.66009 10.3525 9.4371C11.0333 7.074 12.2175 5.449 13.4992 5.10583ZM10.1174 17.5923C9.90415 16.5748 9.78408 15.5399 9.75869 14.5006H13.4992V17.1921C12.3617 17.2171 11.2293 17.3511 10.1174 17.5923ZM13.4992 18.192V22.8965C12.2203 22.5566 11.0343 20.9305 10.3525 18.564C11.3873 18.3411 12.4409 18.2166 13.4992 18.192ZM19.24 13.5006C19.2157 12.3782 19.0855 11.2606 18.8511 10.1627C19.7684 9.9081 20.6499 9.53841 21.4744 9.06244C22.3492 10.385 22.8548 11.9172 22.9392 13.5006H19.24ZM20.875 8.25747C20.1609 8.65665 19.4021 8.97005 18.6145 9.19114C18.2654 7.82799 17.6243 6.55696 16.7356 5.46598C18.3513 5.98699 19.7865 6.95482 20.875 8.25747ZM11.2642 5.46542C10.3746 6.55621 9.73311 7.82749 9.38409 9.19104C8.59632 8.97006 7.83745 8.6567 7.12329 8.25747C8.21217 6.95436 9.64788 5.98632 11.2642 5.46542ZM7.12329 19.7438C7.83746 19.3446 8.59634 19.0312 9.38411 18.8101C9.73311 20.1733 10.3741 21.4444 11.2628 22.5354C9.64707 22.0144 8.21187 21.0465 7.12329 19.7438ZM16.7473 22.531C17.3113 21.8593 17.7661 21.103 18.0949 20.2899C18.1462 20.1677 18.1469 20.0302 18.0969 19.9074C18.0468 19.7847 17.9501 19.6869 17.828 19.6354C17.7059 19.5839 17.5683 19.583 17.4455 19.6328C17.3227 19.6827 17.2247 19.7792 17.173 19.9013C16.472 21.5646 15.5145 22.6263 14.4992 22.8947V18.192C16.7181 18.1914 18.9046 18.7235 20.875 19.7438C19.7891 21.0431 18.3583 22.0092 16.7473 22.531Z" fill="#1A4174"/>
<path d="M13.9996 3.54712C14.3589 3.54621 14.7095 3.43608 15.0047 3.23133C15.3 3.02658 15.5261 2.73689 15.6529 2.40069C17.9052 2.72529 20.0148 3.69676 21.7256 5.19716C23.4364 6.69757 24.6749 8.66237 25.2906 10.853C25.3277 10.979 25.4128 11.0853 25.5276 11.149C25.6424 11.2127 25.7777 11.2287 25.9042 11.1936C26.0307 11.1585 26.1384 11.075 26.2039 10.9612C26.2694 10.8475 26.2876 10.7125 26.2544 10.5854C25.5833 8.19752 24.2306 6.05707 22.3618 4.42611C20.493 2.79514 18.1892 1.74442 15.7325 1.40257C15.6624 1.07504 15.5011 0.77405 15.267 0.534423C15.033 0.294796 14.736 0.12633 14.4102 0.0485214C14.0844 -0.0292874 13.7433 -0.0132585 13.4262 0.0947534C13.1092 0.202765 12.8292 0.398344 12.6187 0.658858C12.4082 0.919371 12.2757 1.23417 12.2367 1.56682C12.1977 1.89947 12.2536 2.23638 12.3981 2.53856C12.5425 2.84074 12.7696 3.09583 13.053 3.27431C13.3365 3.4528 13.6646 3.54738 13.9996 3.54712ZM13.9996 1C14.2027 1.00302 14.3966 1.08585 14.5392 1.23059C14.6818 1.37534 14.7617 1.57038 14.7617 1.77358C14.7617 1.97677 14.6818 2.17181 14.5392 2.31655C14.3965 2.46129 14.2027 2.54411 13.9995 2.54712C13.7964 2.5441 13.6025 2.46127 13.4599 2.31653C13.3173 2.17178 13.2374 1.97674 13.2374 1.77354C13.2374 1.57035 13.3173 1.37531 13.4599 1.23057C13.6026 1.08583 13.7964 1.00301 13.9996 1Z" fill="#1A4174"/>
<path d="M13.9995 24.4531C13.6401 24.454 13.2895 24.5641 12.9942 24.7689C12.6989 24.9736 12.4728 25.2633 12.3459 25.5995C10.0936 25.2748 7.98404 24.3033 6.27319 22.8029C4.56234 21.3025 3.32381 19.3378 2.70795 17.1471C2.67073 17.0214 2.58558 16.9153 2.47087 16.8517C2.35615 16.7882 2.22106 16.7722 2.09469 16.8073C1.96833 16.8424 1.86081 16.9258 1.79532 17.0394C1.72983 17.153 1.7116 17.2878 1.74457 17.4148C2.4156 19.8026 3.76829 21.9431 5.63705 23.574C7.50581 25.205 9.80956 26.2557 12.2663 26.5976C12.3363 26.9251 12.4977 27.2261 12.7317 27.4657C12.9657 27.7053 13.2628 27.8738 13.5885 27.9516C13.9143 28.0295 14.2554 28.0134 14.5725 27.9055C14.8895 27.7975 15.1695 27.6019 15.38 27.3414C15.5905 27.0809 15.723 26.7662 15.7621 26.4335C15.8011 26.1009 15.7452 25.764 15.6008 25.4618C15.4563 25.1596 15.2293 24.9045 14.9459 24.726C14.6625 24.5475 14.3344 24.4528 13.9995 24.4531ZM13.9995 27.0002C13.7962 26.9972 13.6023 26.9145 13.4596 26.7697C13.3169 26.6249 13.237 26.4299 13.237 26.2266C13.237 26.0233 13.317 25.8283 13.4596 25.6835C13.6023 25.5388 13.7963 25.456 13.9995 25.4531C14.2027 25.456 14.3966 25.5388 14.5393 25.6835C14.682 25.8283 14.762 26.0234 14.762 26.2266C14.762 26.4299 14.682 26.625 14.5393 26.7697C14.3966 26.9145 14.2027 26.9973 13.9995 27.0002Z" fill="#1A4174"/>
<path d="M28.0004 13.9981C28.0014 13.6743 27.9138 13.3564 27.747 13.0789C27.5803 12.8013 27.3407 12.5748 27.0543 12.4237C26.768 12.2726 26.4457 12.2028 26.1225 12.2218C25.7993 12.2408 25.4874 12.348 25.2207 12.5316C24.9541 12.7152 24.7428 12.9684 24.6097 13.2636C24.4766 13.5587 24.4269 13.8847 24.4659 14.2061C24.5049 14.5275 24.6312 14.8322 24.831 15.0869C25.0308 15.3417 25.2965 15.537 25.5994 15.6515C25.5316 16.1559 25.4287 16.655 25.2914 17.1451C24.7457 19.0868 23.7101 20.8556 22.2839 22.2818C20.8578 23.708 19.089 24.7437 17.1474 25.2896C17.0841 25.3071 17.025 25.337 16.9732 25.3774C16.9215 25.4179 16.8783 25.4681 16.846 25.5253C16.8137 25.5824 16.7929 25.6454 16.785 25.7105C16.777 25.7757 16.7819 25.8418 16.7995 25.905C16.8171 25.9683 16.8469 26.0275 16.8873 26.0792C16.9278 26.1309 16.978 26.1742 17.0352 26.2065C17.0923 26.2388 17.1553 26.2595 17.2204 26.2675C17.2856 26.2755 17.3517 26.2705 17.415 26.2529C19.5218 25.6609 21.4411 24.5375 22.9889 22.9903C24.5367 21.4432 25.6609 19.5243 26.2538 17.4177C26.4087 16.8646 26.5237 16.301 26.5978 15.7313C26.9944 15.6461 27.3499 15.4277 27.605 15.1123C27.8602 14.797 27.9998 14.4037 28.0004 13.9981ZM26.2269 14.7717C26.0237 14.7688 25.8297 14.686 25.687 14.5412C25.5443 14.3965 25.4643 14.2013 25.4643 13.9981C25.4643 13.7948 25.5443 13.5996 25.687 13.4549C25.8298 13.3101 26.0237 13.2273 26.227 13.2244C26.4302 13.2273 26.6242 13.3101 26.7669 13.4549C26.9096 13.5997 26.9896 13.7948 26.9896 13.9981C26.9896 14.2014 26.9096 14.3965 26.7669 14.5413C26.6242 14.686 26.4302 14.7688 26.2269 14.7717Z" fill="#1A4174"/>
<path d="M3.54712 13.9975C3.54621 13.6381 3.43607 13.2876 3.23133 12.9922C3.02658 12.6969 2.7369 12.4708 2.40069 12.3439C2.72538 10.0917 3.69688 7.98207 5.19726 6.27122C6.69765 4.56038 8.6624 3.32186 10.853 2.706C10.9788 2.66877 11.0849 2.58363 11.1485 2.46891C11.212 2.3542 11.228 2.2191 11.1929 2.09274C11.1578 1.96638 11.0744 1.85886 10.9608 1.79337C10.8472 1.72788 10.7124 1.70965 10.5854 1.74262C8.19753 2.41365 6.05709 3.76634 4.42613 5.6351C2.79516 7.50386 1.74445 9.80761 1.4026 12.2643C1.07508 12.3344 0.774092 12.4957 0.534464 12.7297C0.294835 12.9637 0.126363 13.2608 0.0485406 13.5866C-0.0292813 13.9123 -0.0132713 14.2535 0.0947183 14.5705C0.202708 14.8875 0.398262 15.1675 0.658753 15.378C0.919244 15.5886 1.23402 15.721 1.56666 15.7601C1.8993 15.7992 2.23621 15.7433 2.53839 15.5988C2.84057 15.4544 3.09568 15.2273 3.2742 14.944C3.45271 14.6606 3.54734 14.3324 3.54712 13.9975ZM1 13.9975C1.00293 13.7943 1.08572 13.6003 1.23047 13.4577C1.37523 13.315 1.57032 13.235 1.77358 13.235C1.97683 13.235 2.17192 13.315 2.31667 13.4577C2.46142 13.6004 2.5442 13.7943 2.54712 13.9975C2.54419 14.2008 2.4614 14.3947 2.31665 14.5374C2.17189 14.6801 1.9768 14.76 1.77354 14.76C1.57029 14.76 1.3752 14.68 1.23045 14.5373C1.0857 14.3947 1.00292 14.2007 1 13.9975Z" fill="#1A4174"/>
</svg>
